<mxfile host="Electron" agent="Mozilla/5.0 (Windows NT 10.0; Win64; x64) AppleWebKit/537.36 (KHTML, like Gecko) draw.io/26.2.2 Chrome/134.0.6998.178 Electron/35.1.2 Safari/537.36" version="26.2.2">
  <diagram name="Page-1" id="1vGQy1LxqsvvPqYKwj85">
    <mxGraphModel dx="1835" dy="586" grid="0" gridSize="10" guides="1" tooltips="1" connect="1" arrows="1" fold="1" page="1" pageScale="1" pageWidth="850" pageHeight="1100" background="none" math="0" shadow="0">
      <root>
        <mxCell id="0" />
        <mxCell id="1" parent="0" />
        <mxCell id="yRE97sjeFo4-obtxFWHD-45" value="" style="rounded=1;whiteSpace=wrap;html=1;fillColor=#FFF2CC;" vertex="1" parent="1">
          <mxGeometry x="573" y="74" width="248" height="339" as="geometry" />
        </mxCell>
        <mxCell id="yRE97sjeFo4-obtxFWHD-29" style="edgeStyle=orthogonalEdgeStyle;rounded=0;orthogonalLoop=1;jettySize=auto;html=1;entryX=0;entryY=0.5;entryDx=0;entryDy=0;" edge="1" parent="1" source="yRE97sjeFo4-obtxFWHD-1" target="yRE97sjeFo4-obtxFWHD-2">
          <mxGeometry relative="1" as="geometry" />
        </mxCell>
        <mxCell id="yRE97sjeFo4-obtxFWHD-1" value="&lt;b&gt;DICOM IMAGES&lt;/b&gt;" style="rounded=1;whiteSpace=wrap;html=1;fillColor=#FF9933;" vertex="1" parent="1">
          <mxGeometry x="240" y="234" width="104" height="43" as="geometry" />
        </mxCell>
        <mxCell id="yRE97sjeFo4-obtxFWHD-15" style="edgeStyle=orthogonalEdgeStyle;rounded=0;orthogonalLoop=1;jettySize=auto;html=1;entryX=0;entryY=0.5;entryDx=0;entryDy=0;" edge="1" parent="1" source="yRE97sjeFo4-obtxFWHD-2" target="yRE97sjeFo4-obtxFWHD-3">
          <mxGeometry relative="1" as="geometry" />
        </mxCell>
        <mxCell id="yRE97sjeFo4-obtxFWHD-2" value="&lt;b&gt;TIFF/JPEG&lt;/b&gt;" style="rounded=1;whiteSpace=wrap;html=1;fillColor=#FF9933;" vertex="1" parent="1">
          <mxGeometry x="421" y="234" width="104" height="43" as="geometry" />
        </mxCell>
        <mxCell id="yRE97sjeFo4-obtxFWHD-23" style="edgeStyle=orthogonalEdgeStyle;rounded=0;orthogonalLoop=1;jettySize=auto;html=1;entryX=0;entryY=0.5;entryDx=0;entryDy=0;" edge="1" parent="1" source="yRE97sjeFo4-obtxFWHD-3" target="yRE97sjeFo4-obtxFWHD-9">
          <mxGeometry relative="1" as="geometry" />
        </mxCell>
        <mxCell id="yRE97sjeFo4-obtxFWHD-3" value="&lt;b&gt;Intensity Check&lt;/b&gt;" style="rounded=1;whiteSpace=wrap;html=1;fillColor=#FF9933;" vertex="1" parent="1">
          <mxGeometry x="655" y="169" width="104" height="43" as="geometry" />
        </mxCell>
        <mxCell id="yRE97sjeFo4-obtxFWHD-24" style="edgeStyle=orthogonalEdgeStyle;rounded=0;orthogonalLoop=1;jettySize=auto;html=1;entryX=0;entryY=0.5;entryDx=0;entryDy=0;" edge="1" parent="1" source="yRE97sjeFo4-obtxFWHD-5" target="yRE97sjeFo4-obtxFWHD-9">
          <mxGeometry relative="1" as="geometry" />
        </mxCell>
        <mxCell id="yRE97sjeFo4-obtxFWHD-5" value="&lt;b&gt;Blurness Check&lt;/b&gt;" style="rounded=1;whiteSpace=wrap;html=1;fillColor=#FF9933;" vertex="1" parent="1">
          <mxGeometry x="655" y="286" width="104" height="43" as="geometry" />
        </mxCell>
        <mxCell id="yRE97sjeFo4-obtxFWHD-20" style="edgeStyle=orthogonalEdgeStyle;rounded=0;orthogonalLoop=1;jettySize=auto;html=1;entryX=1;entryY=0.5;entryDx=0;entryDy=0;" edge="1" parent="1" source="yRE97sjeFo4-obtxFWHD-9" target="yRE97sjeFo4-obtxFWHD-10">
          <mxGeometry relative="1" as="geometry">
            <Array as="points">
              <mxPoint x="895" y="478" />
            </Array>
          </mxGeometry>
        </mxCell>
        <mxCell id="yRE97sjeFo4-obtxFWHD-9" value="&lt;b&gt;QUALITY DETECTION&lt;/b&gt;" style="rounded=1;whiteSpace=wrap;html=1;fillColor=#FF9933;" vertex="1" parent="1">
          <mxGeometry x="843" y="234" width="104" height="43" as="geometry" />
        </mxCell>
        <mxCell id="yRE97sjeFo4-obtxFWHD-10" value="&lt;b&gt;OPERATOR DECISION&lt;/b&gt;" style="rounded=1;whiteSpace=wrap;html=1;fillColor=#FF9933;" vertex="1" parent="1">
          <mxGeometry x="357" y="456" width="104" height="43" as="geometry" />
        </mxCell>
        <mxCell id="yRE97sjeFo4-obtxFWHD-28" style="edgeStyle=orthogonalEdgeStyle;rounded=0;orthogonalLoop=1;jettySize=auto;html=1;entryX=0;entryY=0.5;entryDx=0;entryDy=0;" edge="1" parent="1" source="yRE97sjeFo4-obtxFWHD-12" target="yRE97sjeFo4-obtxFWHD-1">
          <mxGeometry relative="1" as="geometry" />
        </mxCell>
        <mxCell id="yRE97sjeFo4-obtxFWHD-12" value="" style="shape=image;verticalLabelPosition=bottom;labelBackgroundColor=default;verticalAlign=top;aspect=fixed;imageAspect=0;image=https://epcmholdings.com/wp-content/uploads/2023/01/Analyzing-Risks.jpg;rotation=0;textShadow=0;shadow=1;" vertex="1" parent="1">
          <mxGeometry x="4" y="201" width="152.08" height="109" as="geometry" />
        </mxCell>
        <mxCell id="yRE97sjeFo4-obtxFWHD-16" style="edgeStyle=orthogonalEdgeStyle;rounded=0;orthogonalLoop=1;jettySize=auto;html=1;entryX=-0.001;entryY=0.626;entryDx=0;entryDy=0;entryPerimeter=0;" edge="1" parent="1" source="yRE97sjeFo4-obtxFWHD-2" target="yRE97sjeFo4-obtxFWHD-5">
          <mxGeometry relative="1" as="geometry" />
        </mxCell>
        <mxCell id="yRE97sjeFo4-obtxFWHD-22" style="edgeStyle=orthogonalEdgeStyle;rounded=0;orthogonalLoop=1;jettySize=auto;html=1;entryX=0.467;entryY=0.986;entryDx=0;entryDy=0;entryPerimeter=0;" edge="1" parent="1" source="yRE97sjeFo4-obtxFWHD-10" target="yRE97sjeFo4-obtxFWHD-12">
          <mxGeometry relative="1" as="geometry" />
        </mxCell>
        <mxCell id="yRE97sjeFo4-obtxFWHD-25" value="&lt;font face=&quot;Times New Roman&quot;&gt;&lt;b&gt;Capture CT Images of Riser Pipes&lt;/b&gt;&lt;/font&gt;" style="text;html=1;align=center;verticalAlign=middle;whiteSpace=wrap;rounded=0;" vertex="1" parent="1">
          <mxGeometry x="-13.190000000000001" y="169" width="186.46" height="40" as="geometry" />
        </mxCell>
        <mxCell id="yRE97sjeFo4-obtxFWHD-26" value="&lt;font face=&quot;Times New Roman&quot;&gt;&lt;b&gt;Extract Image Data&lt;/b&gt;&lt;/font&gt;" style="text;html=1;align=center;verticalAlign=middle;whiteSpace=wrap;rounded=0;" vertex="1" parent="1">
          <mxGeometry x="350" y="223" width="65" height="30" as="geometry" />
        </mxCell>
        <mxCell id="yRE97sjeFo4-obtxFWHD-30" value="" style="shape=image;verticalLabelPosition=bottom;labelBackgroundColor=default;verticalAlign=top;aspect=fixed;imageAspect=0;image=data:image/png,iVBORw0KGgoAAAANSUhEUgAAAP0AAADHCAMAAADlCqUFAAAA21BMVEX/////b8imSXrxYbr/bsjAV5OmSXm/UI7/ccznXbLxXrnyd8LwVregRnT/YMPPVZ2gOHCjQnbYt8eeMm3/gs7/ZsXlY7DDjaj79Pjx2eXTr8D55+/NlbGiPHOzZY2kQ3bdws/q2eH47PLozdr/7Pe6R4r/zOrLZZ/bW6etUoLDhKO6cpbr09/Afp/XrsLNlbL/ptz/ndjy0ePvxtzpuNP/uOLhqMfcmL7ZibbSe6zOcKXIW5r63u3srdHjoMXgj73PoLeYHGOyXIm5bJO1Tof/ldb0Ubf/v+X6i8/OllUfAAAML0lEQVR4nO2dC2ObOBKAgcjEzSUpmLh26hASO87WduJr927v1Xu4zjV7//8XHRJI6AXI2aDRNkybBIMY82lGo5F4eV4vvfTSSy+99NJLL7300ksvWrn/7J93IKczaLB2ufsyPh8j30j0xZB+y/DD0nn8z+djeuyIw0AKbbGRlBFKyvSIlvQ/DJY/Q+M1yp0/NrP6C2T4YTBY/gmasEHuTF3+pfSD5Z+hGWulU/iC3mH8iy7hS3pn8X/prs1z9IPlX6BBtdKp31f0g+VfoUk1ci+ZHpU9mdqXsQ6O9Hio7NTknenebBWlHyz/Bs2qypd2x5chkfZDTSlm+8Hg+O/QsIrUZG6vJhy9g/gdw/s+Rz84/gc0riRW6QfHP02hgQVBFj0f4391Ct8yfc4/h0bmxDr94Pif0MyV2KcfLN3BB6B3CL8Tek6njt6d+Q4D+JfVD91LR+/MfAeE5w+cGfGa0yP26xXoB8t/QZNjAbJ9jv9vaHQPkN6JAT8c/WD5H2h4E/rfVD8N9A7MdwDa3oEBf9f06KiBHnzA3zW9j7424v/0Y9M3uj70fId4KlJvPeGPqVTTnY30g+OvgAP+zm3vD9814w++3v3A9P7wfQv+MRi+BfqWwDcAHPCbt/tDkbnFdnygAb8N2+f8bc4PhG+JHn1qwweZ77BDbxD5QeY7DNq9b1RCLi3vMWwzP8QZflu2N+AHmO+wSO+jIXr3viH82x/wo5Y8FimLLdWlXO4nbETjk6N6eXaYvvzYQI/Ev7qSCDXgn9qnLy5DYVerSBekCJdfkrKIu1KzrhJKnfRKFkEnGrtEX2/KOvv9RkHIOXrzdt9SJdod5DI15v/9297o1FiN+WHoSTNVcxQpfLPr1BpDH+JLl61et1kX/CHoG09RmdheU8ZAp8b9nfP8LkXp/H7v9AeOB8Y/Fv2BIuU+IPT0Qlzl2Hx2gS4XvRD3n1tDsxqmTB8dBZ1Iin6Q/b3WC5B40MJKvTn91mKSzhPXbF8Zt/ipu1UJiaWRLyhr1sn1jScO2L7JTk1FDt5BtL1fRT/nop55UKSjmfY91BKl+Z2jtyXE/CAj3HLcWoThMpllI99qYOtLJX02kGXl5ZI+W27TScwPQV8fzSU/RnxT9TUlWY/H6ZRvYFF0st9o7GrUQw1FxMIH93icjCHoW7IdbY+n0rT1eEoFqb0oCL1fe6TsziuFCfnVcdNo32p71KITkl4rB/V4hvvWrgej70iatctbfzT6g8Rh23dRS3K3CRPzG/JTthmJsUzps6vOQz+hZ6ITgh7RpKwayVf5W/VX/uhrNvLbqlSu7DDbdTrU4/GZnWDVegdG6k6H6HS2xxPzsgav1qQy5jrdjXoWBIieJmuI/8dOcXBBDdFzkz49D+DTVl0pQTST427UN9Ppvu0PKG9clDYF9+k7FCejXtvYRShsUlKNenAxn3XJiD8+2oBpX8xNxBSFq0EencLxhV6+Wtuqk+Y/QLlei52QbKeWwiY9nk6nk56vchnQv0RnH/XsytC+1KeJXdDPdpNaWR9bl09oqHJ3Rv+YxA0SWpezs681za0D+us0cE3Ojof6gfGr009k+JD9yn+HZocbCn9qtxvrzPF5j+/M9tPEjM+ynAkJFMt9Xpt+1O73nDNYk7NPQ/ncoG+PPjQGDg+qGVOdmN7nE6duRrgGtoeQnN5GzDfz/DxUmVjNvI206WSe323Md9X277Vd/puhPzlR+S3YPqR9cp52kZ/yg/YoifuWDl/803o+c3QTnXjD2fujoyPleaZvx/PJNVpIGOTCtfsu+vsGnSX90Ql3ac+bs73k/l3QSyYIQ9rug7KdvgKNVqfa7ul4Iazoifn9t2T7kLM94X+bUY/ijzua3ZDp47SSOM6EbXiVsCJLoyRJokhcy21KojQT12KRipKvFL9Jomfu30W7D6vOON59rGS3XiUcWPrx42jHf04ni/k0HyQ/bINIAkoeb/DbMKazmzWnIluPcrWjDH8TjQNhNslXjjZZWH7GBUOZvnD/rm0fSW/wmO8SZpUk/3zJMON0xJW7EdwkueKfkbNjUwjpR7JiLRg6IWWvRP9R6Yn5O475Mn3Ov6fHKtCnG6ncNTv8LLusUVHSLyJuPJQVigT6UEeP+W3Y/naGZU4f8nOdqfTppODYba6frh7IMqulgBhzOlo/PT1u53zVlPReSiHxuhuVXuf5RM5fnz6skvQQ00+/RUSSZL8lHCp9YbCHVRRnWRZHe8w4pRVDgK+SFG9LkzWpC8H2peuHnOPn9Gy00ED/2lcpa2xfTfVl0R6XWUQyfYQPecRCQpbiz1uiKrrBNbFiauMY18YsYfSXTCHZ/Ji3DM+k3XdOH1J6luDF17hQ4fsVfYp94oGbD81IsYgtBVxcK6pmHVP6K4+5fv6NuLK2PH3x1S7YnoLepCJ9RAiF/XDbn+TM0QIvCIbE5vXmCaVPPT7qY1XXnhO219AH+GC9RKDP1p7gvXjV4+XuKSuLy7PkCQ6leCuh/3bL7Rznqh727tITqxLXZ/QkTK+ltC8iPT6mUfNH7Ow4KhD6ZOdR1w+Jq0wU+poeD4A+3tFjY/SkW9Rkt7hicAr0KKWt2SpfeRtRzw9o3YWFq0SK59ukl7MdkZ64OQnnjB4v1JwDinK39lbyWrpDQR9VUT/O04ZFAkovHL1K/+SVYa/y/HxhJmX23P6eMmykawv6uIr6uFmtU0foaY/HTzuQLkykDzw+4RetjHs3xS2wtb2MeX7m0W4hzpeijNJXM51OZDs19NnB9Lg9BIweW5y4PvaCRZo53OORpNbc8+daesHzA+b62CceY0L/RzfpcWCSo960Oepl8lq6Q0lPHB67fkZWu2x7kuxNhP5eixiRDp/0eBsF3xN6POr62Adyr1Lp3Yn5BHUvZju4QqRsJ5qSZC9m/SMnzH2Y7Sfkb3JLaspl2+MQN5UyXRwKpEwXE8yjmkwXh/xNFfOLUrnrF0Xdsz3r8oidR9Ioh0R2wb3JuBZP+qV4lHMlKCUZAzfKCYqx0AKnvFizu7bPyAB/JY1wSfa7UEa48g5U55TSMXrSQL7NigEErO3rM90sXeEjv1FnN/Cu1WxlnE1ZRUY47k1X1Swf6e642Y2UKliXHuGY7cuZrYjObJVF+JktbDtvkUUZntlKnqZcMdLle+skzeNZvm1DZq6KST+OPnf9aRkf3ervvdtCZuW09F4zqxmRevEWk+vV5uqWLNPJzywg+PPt43612RVzxBtuVpN8IXH9XHXgnO1Fme/pcQkz2slWKlfNaAfxg7hpSrdV9EXbIY7vMP3sKqo5mxFt+KILfiYvSCb82YwtU8HRk76hODPkDn26vWEy2q0D/hRdmq/bcqelkqfRLaG83e7lM1lRcSbLmy/W3Hm7bJKrKKoi2+SLZZva54uPLtAHqXAWU9kmrMFnKtM4lU9V0m1RGuPt4lpWFzF36rL9LKYlekekp+/pe3oYessXqQkCTw8pPT0wfUjvzmm8mjzULprorC0fAs1otx31KxTiy9dugaUPlQUTgsPu4GoqAE8v3ppW66XyciObqU6YM1nVIr2yto60BBDW6i66f5lOS/SzmvvxQmYhxRGqw+auNa7uUai3fcj91TctpvPskxV6fgKyulqyuIWiWCr/0w/8sZbbWCXwl1uyMkxTIOukqjU6Ay3869Nfaowf1pimUbR+/UKdZ+8s0Xs30qXH8BKGer/v5Imys3Wa1MuZdQn+W2P5rp6nO60VD3/pO6tyVP/CHJinCTe9v8imwLw3wxV+EHpyKxw0ORaYN0W5Yn6oJ0mTO6DB+YFsXz7pChof6s0RxePDoM0P/fYA2OgH1eOxR32Bmh8s6vHPdX1L9NUDb9jjX6DMD/aONLH1A/FD2l54rDOI+wO+NYQGAEDzu/DWEPZ0W+v81ukvuJdYgLd+6/Sfxyo2FP/JkW36n8/ZM+19n2Y+NPRZHvmefLFN7+mf+4ogzH96b53+/rxK9jR1YDP3td7sc/k+9ukz3BGtByRUgCXzAzh+LhdNgc+i+59O24+1G3xUDXP4NzmxF6BYiH7P9lt9Id/Ppeen62JAx+Z//gUIPg99vsyv9gCduv/J869g8Ln8enE+Huuf8VvJSUdy+vz9DhI+l7v77xet8ocu5H/30Oy99NJLL7300ksvvfTilPwfjyyeEGJwynEAAAAASUVORK5CYII=;shadow=1;" vertex="1" parent="1">
          <mxGeometry x="250" y="163.13" width="84" height="66.07" as="geometry" />
        </mxCell>
        <mxCell id="yRE97sjeFo4-obtxFWHD-31" value="" style="shape=image;verticalLabelPosition=bottom;labelBackgroundColor=default;verticalAlign=top;aspect=fixed;imageAspect=0;image=data:image/png,iVBORw0KGgoAAAANSUhEUgAAAOEAAADhCAMAAAAJbSJIAAABFFBMVEX///8AAAAAt+zW7/v/2GbuTnEAvfTe+P9GT1Pd3d0ATGH4UXYeHh4pDRP/2mf/3GigoKDAok0PDQbrx16mN0/MrVI9FBy6PVi80tyKmqIAdpgAoc/f+f//32nT7PgAqttHR0f09PQRERHp6enG3eiuwswAirIAWnROTk6Tk5NtbW3pTG+/v79bHivQ0NCrq6tpWSrXtlaWfzx9fX2arLQAeJtTXWIwNThibXIAHSUqKioeCg7cSGhHFyLORGKcM0phYWF3ZTCAKj1LPx5+jZRaTCSZq7QAYn8AkrxwfYMAN0cAJC8AEBSJLUG3t7dyJTaMezklHw+rkEQzKxRCNxqCbjQAQVOBkJgAIiuiikEgGw1xYC2cn43RAAALyElEQVR4nO2d+1vTPBTHVxgrsNmCAxmXbmxschUYIIOJCIIooOjLK/iq////8XaXJjnpJUmXkZYn3+fxB8vS5tNczjk5aZvJaGlpaWlpaWlpaWlpaWlpaWlpqdXWzv5aq11IhNprG+vbUukm1peN5GljSxJedSqJeF0ty2CsrtdUc0RpbWVQwCnVCEwN1owTLdX159D6AIA7qivPp/iIZ6qrzqudeHzVoBn03YtE6B1VrVi2sUoPwTff5k5PxvKJ0ObJ3EeSshCHELbgqw8n+fxYkpTf/EDUL8ZQXAN8c2PJwusqf/IKV3FCFHCfBJxJIF5XmxhxXxBwi+B7cZJUQBcR1bJWFQKskhPMpmqMKM2het4JEW5gwI/JbcCO8m+8im6IAG5jwO/JBhwbO0XdVIQQG4r3YSceHrjYmfNjaLKJ1YTvAsdgPn8yNxNTc/BMm3MzpwApfyp6xvdeZaf45xpsCk8D+DZnUNePpTlMlP/WOUBOZSeDnXtth4tyAhXwD8L86WBV6AjdtnzfKSGGwvvoohza4HBR19Gv6T6aH/AW9/TGu2+bnmeJuu5cZEFObTCj/rb30290E36TUQHD8E6LpkHvQvmPci7ACKZW0A9PqAEoowE7cvoqegf2vCM/JF0h2oVDcf0b2ISkmzuQdp1sV1b2n/6RWbt3xJ6WdAnjLIoQ+TMzsAVfyLp60cr2ge57Bz5Zlsd8IesiUR4OGoawk8rqov82+w3myuki7qL/u4i7ki4TFTB6P3kFZlE4B/w835uOp2YWA7qIxdnZppMljzRnY5759/lPUMfwRUbvF2AYgmn8oZl1HDumrCyQZfkOxD2zk20+ELVsMwnJoCJPzDKfig5dzYTIsp0i0Y6h/dT7wQcCcAaX23OSideTbf/FVQ3z4Ly/E0sXxDyabEBXNp6rphiEc0Gj8DzpgISVDR2JfsL8d0Souv4csmdRbUOc8IA2RGuv0zb7Cqpl2Z+86ob4p35C5CG/jD51QoR9vxDHxk+I1pYfnBA4u+M2J2WEWsijDxmIPkLszwR3UsvOTj9c/DESquWNuyqLELmkzYBmsp3m3+BTJ0hrd9GEaGmh6Cd0itJ85aFqeTuK0HPZXvoJnd+KaiyusziEVjb5HRSrtRKjDaUFrE+i2oQooZOOIYjVrooROnuKKhpfa0KEhP/XUaE1nki1QS3XBQgtmxyE1436qJlIlUu/yF1rVX5CcuVvvG6OJldm+RpXdZ+f0HmJG3BJNQRDS1cYcYWX0GqiModJbsCeluZRbXd4CW3kzBTqquvPoaVxr7pnvIQOWtSaT34TuioRcw0XoZVFwzANTegKNeI2JyGKMpeTPs30ZF56Fd7iI7TRRHOUik46OnqApxq+NkQOza+UEKKBOCVKmI6JRhNqwjRIE2rC5CtthGa5Xm8clOpu3M1ZIlWEZv3gqNC//PJlgw8yRYRm/cgAKlzxVCE9hOSShKd2g12JtBCapeCH6a6ZJVNCaDYC+VwdlhlF00EYDmgYLUbZdBCWjAgxFsRSQViG69e0LiNrkgZCE8yifx72fv+AqaFS2gnJPvqp6TiO7TjWPV6YNsZTTmgeYpZpp79nwnLIJG0j3YR1TEJuSbVsvDn8MN2EeGF+GmzrsRy0B8qIMIrJJ1xCzsw5tW8Jr90aB+oJzdFSo3HVKImn43An9e0mwA8xRCzePg2hWTrqt0Tt8KAsBoncmQvf1jO8PN0OX4B/CkKzhHIHXXEFPX7C3z5CK/uv90e1hL8MSi2RpA5KcgZsrnNQwj28/PAJy4Q581Qo8XcAdH+CCNFsGn7Phk5YDo7r+BFRZiWZbWiGRgWRviQpNA73kjgOo+I6XkR0ip8Rc2lLESG5FSI2YhkVaNLd1EGPyiiyhyacRB8X3q6CA3wzKt5rsEs1oq3cpwFh3WMl19Fb4lCNDxH7pfcQkdicpcYvBVbic26kq9wX4iDffhUitpgFscU5Oq4ktiiD19ws9AFdxNckImuhrCOTWAi+9x4us5wijiyUxId1sLTyGgFSiG0eRKIRjZ/TVucJCLtI7gCNXIsaDiFlJb4QgBQijwMH12mM3YcfD/CZyqdfpzEPiMsbx4sA0EUkp5sWRyuG+EU893o4hOY8cXnjtkIB0ohsQtBPfWJs7BkCIexUjzSeD3GcoxUjloQjF9qGQwhyYKu+BuwhLoghmqWwReEj7psji7AMot2FYEAKMcqceaoHv2iU7XfIJqyDSeF1GKCL+FkQcRSM7p7GOYIwuYRUsPQlHDAGolm+LIDTtxo82yOlEkIz+JW2ElGIzOHUY2xct3ob8AuH85xBtExCEwRLx34rQSOSocYR33bVzl6MUqNeL6vYiwGDpRsGng/xekgrzBIJgRmc5AB0ESeHjyiNsBwYLDE1fERZhGHBElOPRLHLYWwdl0RYBy/GjjCDDMQhtKIUwshgiakbougQEloyCJdAsMQyg0+NKIGQGSwJIYqlbXoV6PwLLSaBMIaVoHUbG9EcLc0fjbdah5eNkNTk4IQ8wRJLFRLxQATxighljgL9uEEJOYMlJuJxHESzQS1vBO3jG5AQLqm9jQs4kgOIHHsqu/Lvx6z5m3EgQrMEzKCglaAQvwoihuzHnJdJKBYsSUY0w7I+9HbMAQihGWQHSyzERfJ0zOCP2hFNqA3LDkAIzCBPsCQP0SzBaJ8ScBviE4JREM8Mxkb07X2gdFSWQUiKO1gSQgxrQHrvw0KlUvnyCA618P2RQhjfStCIZO4tJINqNuAHfiZHOlfPwaKEaySDUChYEkAMzqBSRhDd3VzlBvzB66kSCAcxg9GIbR+iWYILw7fARH0Gf+v31IEJBzSDfkSQXqQQoYFy3eCR8Lydq6slCYQ3I3IBI5PEZcoI+oZHUE8dkFCKlYhCJDKodHbmMdDHoHvqUgDhB37C1SEAUrm3Za8VTSpvscBxf1wdoNwjJkTvoGUSxg6WRBD7GVTaCIbOb7nFW/BDVA4TvudtQ4lWIgqx04r09rHJyOEPNyb5CdHbrhmEUq0EjQgyqKOjlwYQw8Wge6pHiD5Fht52H0k4rC4agHgI9xj/xzRQdE/tE+KvyW2qJ4S5N6BVDgOVC+ipU8SXA/pv9FZKGIrIOfrBUO4TEp8o6fVTtYTBiDfcgbavp06BLwV1ERUTwvRiT59FioPEVu8d2MQn196f5JUT+hC/Ck7fsKd2CLfJA99Px1QTUoiTwktBoKd232O+Tp7QeOW97FoZIUwSx1hJIHtq703t4NOASOoIYXoxzmIJ7qk9Qt/3K5UTAsQ410RrP/237VeDWlEpIci9xbgoTRjYUdUSAkTxRS8/YcDHnBUTDoYYQJhZoT8HrJoQIIrGbEGErmEEXyMln95UQzjyX3zEYEJ3xtnZJ1ZFmqoJQXpRDDGMsCvUkvjBOEWEI5XYrRhJeOf9ET9FrYoQJokXBUpGEqKI8WXWUkwIM6giubxIQrx0g54yVkboetEEokAjRhPij+d6jaiOECBKI8Th1IWtnJBML1b4S0UTZrAjft57aEwlIUYU2ZjEIMTrb8ZF0VFN6CIei040LMIMma67zzq2o5TQjWjfTq5KtPgZ8gu6rv78nW5OKyXspLNzcrw2JLiwQUgRobCYhJn9Z0+YoWOp50dI2P3nSkjajGdKmJkIePjveRFmMls+xudG6DLuP3dCV9t3U/vLz5qwOyS9ApL2Iw5bOKfP+LS8n/AmJYRoQ0D416yhql6Br6rrzqccynuEfGDWLxQySttVOlRV0NQY9qVnn9CUequ68jzCCcg1XkBiZSMFcw2xd4h3KnWFt8kn3mCQ+3En+AkJL3V10IcshqrcCLGxKuQjyMEiEhrHC4u5pKrymkxZrbC5sLYMUrePk0nUI9wvtC8CGB72J1ctMUC4ApcG1YT6aEfV6JekJ07c7gyBmKpWFDAUhNIzFte43TVK29GvGEuKCrxBU5D8KxuJU03AVwvUxM5Zoca+jhLVCstT8QYgrerKRBIlbB+0tLS0tLS0tLS0tLS0tLS0tJ5K/wPkM5qr0HJzOQAAAABJRU5ErkJggg==;shadow=1;" vertex="1" parent="1">
          <mxGeometry x="438" y="156" width="75" height="75" as="geometry" />
        </mxCell>
        <mxCell id="yRE97sjeFo4-obtxFWHD-34" value="" style="shape=image;verticalLabelPosition=bottom;labelBackgroundColor=default;verticalAlign=top;aspect=fixed;imageAspect=0;image=data:image/jpeg,/9j/4AAQSkZJRgABAQAAAQABAAD/2wCEAAkGBw8QEBAPEA8NDg0NDQ8PDQ0PDw8ODQ0OFREWFhURFRUYHSggGBolGxUVITIhJSkrLjAvFx8zOD8tNygtMCsBCgoKDg0OFxAPFS0dHR0tLSstKystKy0tLSsrLS0tKystLS0rKy0rKy0rLS0tLS0rKy0tLSswKy0tKzctKy0uLf/AABEIAOEA4QMBEQACEQEDEQH/xAAbAAACAwEBAQAAAAAAAAAAAAAABAIDBQYBB//EAEIQAAICAQEFBAYGBwYHAAAAAAABAgMEEQUSITFRBkFhcRMiUoGRsTJCcqHB0QcUFUNTYpIjJGNkwvAWc4KissPh/8QAGgEBAAMBAQEAAAAAAAAAAAAAAAECAwQFBv/EACwRAQEAAgEEAgIBAwMFAAAAAAABAhEDBBIhMUFREzIiFGGxBVKRI2JxgeH/2gAMAwEAAhEDEQA/APuIAAAAAAAAAAAAAAAAAANgVu6K7wI/rEQD9YQElcgJKaAkAAAAAAAAAAAAAAAAAAAAAAAAAAAC1+dVDnJa9FxAz7ttL6ui8XxYCs9ot85agR/XPED1ZQFkcgC+F4DNdoDdUwLQAAAAAAAAAAAAAAAAAAAAPGwE8nalNfOab6LiBkZfadL6CS8WBi5faCcvrPy5IDOntJt8WBFZ/iBOOb4gMV5XiA3VfqA3XYA1VMByqYDtMwG4MCQAAAAAAAAAAAAAAAAFGRmV1/Skl4d4GJndp4x4QWviwOcz+0Vs/rNLouCAyLc+T7wFZ5niBRPKAqeQyE6Thaxs0Zqmxs0epkxs0fokNmmhVIlBuqQDtMgHqZAPUsC0AAAAAAAAAAAACjMzKqYuds4VwX1pNJeS6sDkdqfpBqhqseqVz9ub9HDzS5v7gOX2h22z7NUrIVR6VQS++WrAwcjbGTJ6vIub+3JfIBSzaV/8a7+uTAoe1b1+8b+0ov8AACyvbj5TivtQ1+T/ADAcV28k09U+TRG06easjadJxRG06MVojadG6mDRylkoPUyA0KJEoN1slB2hkoaFDAfpAvAAAAAAAAAAADmO0va2GPrVTpbkLhJ/u6n49X4AfOdo59t8/SWzlZPubfCK6RXJLyARmwF5sBexgLzYC02BRNgO7Fy92fo5P1bHw6Rn3fHl8CuUWxvl0DgZba6EUNmlsSdo0uhIk0apkSg/Qwho0MlB2ssqcoJQ0KANCgBgAAAAAAAAAAjbBSi4vVKUXFtNxlo1pwa4p+IHwvtRXfs7JlRdF21Sblj5C9V21vr3by5Pl170BlrbUH9SfxiB7+0Iv6svuAPTJ9QISg3yWoCtgC02BRNgVeXNLX4AdfgZPpKoT73HSX2lwfyOfLxXTjdza3UjaU4kqr4FkGqWSg/QSq0qCUHqy0VO0RZKNH6EBoUIBgAAAAAAAAAAAPnna+z02RNOKnXUlWk0pLVLWXDzbXuOLmytz8fDv4cZMPPy597Lof7mr+iKM/yZfbT8eH1Hq2XT3U1/0Ifkz+0fjw+ol+z61yrrX/TEd+X2dmH0rng1+xH3LQmcmc+UXjwvwQzNlxkuXl7S8mb4c/xkwz6f5xcptCt1TcJc+a4c11OmXfpy2a9kZWagFMtJRfitfLvA6HYT3Y2V+xZqvKSMeX234vTR1M2iyLLKr4MlWm6SyGjjxZKGrjVjaNNKmBIcqiSqcqiSg/SiULQAAAAAAAAADxvTj0A+bTnvSlP25yl8W2edbvy9KTU080IWRaAqmiEqLAF5gcx2wx/Vrt71Jwl5Nar5P4nV0+XvFydTj6ycwdLlAHRbMf8AaT/mrg/vaMuX4a8Xy0NTKNV9cGydmjtNPUnaNH6Kxs00KIEqtXFgWQ0Kokq03VEtFTtFZKpxLQkegAAAAAAAAAC+0Z7tNsvZqm/+1lcrrGrYTeUfPIcl5I896KQSjIhKiyQC0yBTIkYnapf3d+FkPmbcH7sOo/Rxh2uEJAdDsb1rbekIRj79WZct8RtwzzWzGBhtvozVElB2mBKDtMSVa0ceBaK1q49ZaKtCilssrT9NC7y0VORilyJQ9AAAAAAAAAAABDb0tMa9/wCFJfHgU5P0rTi/eOBTOB3h2LqQsrnaQlTJgVSYQqkSENp4avh6NycY70ZNrTXh3F8Mu27Z54d00S/YGNppuSf82/Le+Zf82f2p+DD6c1tHDdFrjzitJQb7492vjrwOrDPum3JyYdmWmt2Vq9WyftTUfgtfxM+a+ZGvDPFrcSMmpmpEoPUwJQ08XGb7i0VrZxcTTmWUrRpgkWVpuDLIMVMlUyiUAAAAAAAAAAAAM3tGv7pf/wAt/NGfL+lacX7x83Ujz3pJKQBvAQcgK5MlCuTCFuLSpb2vTh5l8ZtXK6KTjo2uhCXK9q5J21xXGSr49eMuC/31Org/WuTqL/KNvZeL6KqEPraay+0+L/L3FMru7Xwnbjo9VU2VSfx8bqSNTHqiiVWnQy0Vp6uRZUxCRZWma2Sg3UWVMolD0AAAAAAAAAAAF9oU79NsPbqnFebiyuU3LFsbqyvk6kec9NLeAN4DxyAg2BW2Sg9ierHX3l56Z5e2XlXqKlOXJceHFvol1ZWTd0tbJN1j7N2ZOdryb1pKT3oVv6nTXyXcdNyknbi5Zjbe7J0FdS8yjQ1WAxBkoNUyJQfokSrTtUiypqosg7USqZhItFbV8ZlldpqRAkEgAAAAAAAAAA+Ubax/RZN1fdGxuP2ZetH7mjz85rKx6XHlvGUnvFFhvAeOQEWyR5Hi0gg3fPSGnuL30rPbIjka2KK5LX3y0JxiudNpl1FsGSgxWAxDTvJ0jZiqRKNnaNSNjQpRMyVpytmkUtMwmWkUtXQmXkZ2rVYSjayMyE7XRmFtppkJegAAAAAAAAcP+kHB0nXkJcJr0c/tLjF/DX4HL1GPnbr6fLxcXIbxzukbwHjYQi2BdQtOLJiKS2nmfVXP5ImeUXwUwIPfT8S2/KuvDWdZfcZhTS8S0V2sja34DwjdM0xIuRIepKXJaHqGV7g5CZbGqVfCZtjWVMQsN8WWVXxmaaZ7WRmE7WwmQldCZCy6EyErUyFnoAAAAAAAJ7XwI5FM6ZcN+Pqy9ma4xl8SuePdNLYZdt2+S5NE6pyrmt2cJOMl4nBZq6r0JZZuKiEgD2KApzMzdW6vpdOnmWk2rbpnV1uT73q+LLK6adFW75lPa5zJx5w+kveuKN8uLLD3HFhzYZ+qoRXa66orckm6jO5JO0xZS5h2HAiXaLVkbTbFnlV9c2+SZvixypmuWhtKyq2NhrKqtjMsLoTCV8JELRdCRCy6EiErkyFnoAAAAAAAYHabs5HKW/BqGRFaKT+jYvZl+ZlycXd5nttxcvZ4vpwOZsjJplu2U2LV6JqLlGT6KS4M5bx5T4dU5ML8s6d0VzkvLmyuqtuFbsxvhFNeL5+4mRFv0qqxnLmTaiRoVUKJW1eQ5gU71kV3J7z8lxNODHu5JGHU59nFlf8A1/y1smXM9l89bpk30ru4fI5uXpZl5x8V08XWZY+M/MSx6G+S1PJ5t8d1nNPS4+THObxu2lTjaczkvL9L7N1w6IS7LV8aX3vQ2xrO1bCEUb41nU981xqleqZrKpVkZmsqq6EzSVBiEi4vhIhMXwkQtF8GQsvgyFlhCQAAAABVk5EK4udklCEecnwRMlviIyymM3XH7V7YzesceO5H+LNazflHkvfqb48P24uTqrfGDGebYq8jJnOU7IV+jqlJttW26xTXlHffuJ5NSaiOn3ln3XzphLEjouHcjxssv5V9Djj/ABiUcWK7iu1tLVXoQnQ3QNTZtG7FzfOfCP2evv8AwPS6Tj7ce6/P+Hj9fzd2XZPU/wAi+R3R5lJ6JvRvTo+a18SVR61b6P7mvxM+Tiw5ce3Obi2OeXHd41qYWVGfB8J9O5+R4XU9Dlw+Z5x/x/5enwdTjyeL4p6LON1JbxeVWvN42xqlebxrKzqSkbY1WrIyNZVV0JGsqpiuRpKgxBlkwxBlVoYgyFl8GQsvRCwAAACFtkYRcpNKMU5Sb5JLmxPKLdTdfNtv7YnlWa8VTBv0UPD2n4s68MO2PM5uW53+zMiXZJ7cbWPj0xTcr7bLnFLWUt3SuCS7+Lmc/JfL0Omx1hv7LYOTC6Cshyf0ov6UJd8X4o8jPG45WV7nHlMsZYY3Si7yWiTbaSS1bbSSQHuyav1l78dViwbTt5enkucIfy9Ze5dV28HTb/ln/wAPO6rq+2duHv7bWQ/d4dD0o8es29lozpVkqrarVpuy4w++PigmX4ry6lx0aesXxjJEe/BZry0cDN3vVl9Luftf/TxOt6P8f88P1/x/8el0/U9/8cvf+Tup5zq281NMarQmbY1SpJm2NUqyLNsarV8Gayqr62awM1s0DNbIWhitlVoYgyFoviQs9AAADlO3W0d2MMeL42evZ9hPgve/kb8OPy5Oqz1O2fLijdwJ1oJjVw8f0u1MWv6uLj1ykujjFz/8pxOTO+a9XimsY1e0v6P6sm15ONdPByZvW2Va1quftSgmuPiuffqZ2S+41mVnmVjrsDtRcFtDGa9qWP6xn+DD6a/n5PtXkfo4em9m59t614U1QVUG/e3p5pammHHjPUY8vNlrzWt6ONcIwhFQhCKjCK4KMVySOqPPyuyGRIvGdZ1zLM6oCoAaxLV9CXGMuWvcyLF8b8VDIocHquWvB96HizVLLjdxpYmRvx1+suEvPqfO9Xwfh5NT1fT1ODl/Jjv5XnNGoNcarUkb41SrIm2NUq+DNsUL4M2ipmuRpAxXILQzXIhaGIMqtF8GQtEwkAAHy/tBlelybp9ym4R+zH1V8tfedmE1jHlc2XdnazyzJfjw1aXVpCrSOh7I17+0s63+FGNa8NWl/wCs48nrY+ncFVgBzu08nfk39VcI+XU2xmo5OTLurGyJGkYVmZEi0Z0hYyylQCAAAaNc96K171oyrWXcU4ct2zd7par8Ucf+ocffw93zj5adNl28mvtqHgPSGppirR6RG+KtHp0jfFUfriXebYqj9oLqbRGk4bT8TWGjNe011Cxuraa6kJPUZ6feQs0KMhMqtDcWEvQKsu3crnP2ISl8E2TJuoyupa+Sa/F8zteMEEnsGPrw+3H5kX0vj7joewq9bPs755jj/Tq/9Rx329XH06zeISW2hfuw0XOXD3d5bGbrPky1HP3yNo5KzciRaM6zL5F4zpOTJVeBAAAGcWXBrxIq+Ly16TjLxXzKcmPdx5Y/cqZdZSn7L0j5aR6xS3ONcYilZ5x0YxVU8xm2KEf1hm0Q9VjNIhbGbNYL65MJNVORCWhixn4kJdDs+EiFo2akErAM7tDLTFvf+FJfHgXw/aM+b9K+YHW8lKCCY0cFetH7S+ZWtMfboOxa0qyH7Wff926jkvt6mPqOh3yEs3Pt1k+keC/E1xnhy8t3WVkSNIxrMyJFozrOukWjOliUAIAABbjvj7hVo9v5CFJ3ZL5HzfJh255T+71cLvGUtKxjFZHU1xQnBGsqpqnHbNJUHK8FmsV2Zr2ezWGz1GzSw0sfZvgQtGrjYCXcVWjTpoSIXXJAegK7TxfTU2Va6OyEop9yenD7ycbq7Uzx7sbHyu2uUZOMk4yi3GUXzTT0aO15Nmrqp1IJjRxFxXmitXxb/ZfhXcv87kfNHJl7enh+sa8rNE30QibdTbLukbRxVn5Ei0UrMyJF4zrPtZZSqgqAAAAlW+ITE7HwCazMheszw+smubJ6PT3fHFZzRsDWIMY/M0itbeDBGkVrWpqRvjFTlNPgbyaQ0aMV9CLV5jT9ONoV20mJqENCFkwAAAAOa7Vdn/Ta30r+2S9eC/exXT+b5m3Hya8Vy8/B3fyx9uNqg09Gmmno0+DT6G7ijRx4lavG3sPgrl/mZP411v8AE5svb0eP9Yfvlw8xh7Ry3wz7pGzkrNyJFopWbfItGdIzZZSohAAAAD1BKTYSTyY8fceP/qE1yS/cd3SXeFivcOCOp6qzXFBrGx22b4zatjotm4MnpwZ0Y8d+Ua26LF2Z1NZqEwaVOGl3E7XkkMxrSISnoAAAAAAAABkbX2DXfrOOld3tL6M/tL8TTHksY8nDM/M8Vzs8KyqW7OLi+584vyZr3S+nJcLjdVobMWjsXX0cvjFx/wBJjn7dnDf4mchk4K818xn3yNI56zMiReM6zb5FozpVkqvAgAAAAAethKmcdX5Hk9Z/1OTU+Ho9Nj24eflZViylyTZjh01vtvtrYexJy5rQ6MeHGHl0OBsBLRtG08ejTexsKMe4JNqOgHoAAAAAAAAAAAAEbK4yWkkpJ9zWqG0WS+yL2XFNuHDXTg+K4a/mTbtGOEx9EczGsjx3W11XFF8LNMeWXe9MfIkaxz1mZEi0Z1nXMvGdUhUAAAAASrg5PSKcn0S1Yt17TJbdRpY+xLZcZLd8O8wz5fiOvi6a+8mni9nuqOeST07dNrE2NGPcSlq04sY9wDCiBIAAAAAAAAAAAAAAAAAAAKbsWuf04Ql5pa/EmWxW4y+4zsjs5jT+rOH2ZP8AHUvOTKM70+FZ13Yut/Rusj5xjL8i05r9Mr0k+KUn2Il3ZEffW1+Jb839lf6S/wC5H/gmz+PX/RL8x+afSP6S/wC5OHYiXfkL3Vv8x+b+yf6T/uMVdial9K62XlGMfzK/mv0tOkx+aeo7K4kPqSm+s5N/ctEVvLlWmPT8c+GjVs+qC0jCEV0ikkUtt9tpjJ6i1Y0eiISmq0BJID0AAAAAAAAAAAAAAAAAAAAAAAAAAAAAAAAAAAAAAAAAAAAAAAAAAAAD/9k=;shadow=1;" vertex="1" parent="1">
          <mxGeometry x="679" y="334" width="62" height="62" as="geometry" />
        </mxCell>
        <mxCell id="yRE97sjeFo4-obtxFWHD-36" value="" style="shape=image;verticalLabelPosition=bottom;labelBackgroundColor=default;verticalAlign=top;aspect=fixed;imageAspect=0;image=data:image/jpeg,/9j/4AAQSkZJRgABAQAAAQABAAD/2wCEAAkGBxIQEBUQEBIVFRAQFRUWEBAWFRAVFRYQFRYYFhYVFRUYHiggGBolHhUVITEhJSkrLi4wFx83ODMsNygtLisBCgoKDg0OGxAQGy0lHyUtLS0tLS0tLSsrLSstLS0tLS0tLS0tLS0tLS0tLS0tLS0tLS0rLS0tLS8rLS0vLS0wLf/AABEIALcBEwMBEQACEQEDEQH/xAAbAAACAwEBAQAAAAAAAAAAAAABAgADBQQGB//EADoQAAIBAwMCBAQDBwQCAwEAAAECEQADEgQhMQVBEyJRYQYycZEjgaEUQlJiscHwQ3KS4TPRNILxJP/EABoBAAMBAQEBAAAAAAAAAAAAAAABAgMEBQb/xAAxEQACAgAEAwcEAwEAAwEAAAAAAQIRAxIhMUFR8ARhcYGRobETItHhMsHxBRQjUkL/2gAMAwEAAhEDEQA/APiIJqybCKKFYwpisIphYaBWGnQrGiigskGnQrDjRQWTGigzExooVkxNFBmJFFDsEUUFkiigskUUFkg0UFkilQWCKKHZKKCyfnRQWDelQ7BRQWSigslFBYKKHYKVBZKAsFA7BvSCyTQMG9ICSfWgYJoAk+9ADAVRIwFMkYCgVjBadCsYLToVjBaYmxwtMmw4UUKw4UUFkwp0FhFuihWTCih2DCigsBSigsGFFDsmNFBZMaKCyY0qCxcaKHZMaKCwY0qHYMaKCwY0UOwRSoLJFFDsEUUFgilQwRQFkilQwRSAEUDBFA7BFIARSAkUDLAKsgYCmKxwtOibHC06JbHC06JscLToVjBadCsYLToVhwp0LMHClQWHCmKyYUUFgwoodgKUUFgwooLBhSodkwooLAVooLFK0UOxrVhnYKoJY7ADkmqhhym8sVbCU1FXJ0jqudHvKpZkIA5n/Pet59ixYRuSMo9pw5Oos4Ctcvcb2d+l6QzxkQmXAIYmN5OIEjiu7B7C5JPEllvhVv0OfE7VGN0r8Dl1Wia3zuDEMNxv7/kfsawxuyzwknuufXWhth40Z7HPjXPRpYsUqGSKKHYIpACKVDARSoYIpACKB2KRSHZIpACKQFqitCGyxVqiWywLTomx1WqomxwtOibHC06FYwWnRNjBKKFYwWnQrDjRQWTGigsONOhWDGih2QrSoLAVoodgxp0FkKbe/p7U6VBYMOAOaKXALFayQYIM+lGR3VDzI9J0npzWbZZh+LdiF3DKnmjf0JCyPQV6mDgvAhb/AJP28/k8vtHaI4s8sf4r3enx8monTixVbJzN7d1jyrdPqCIMfpkaabi83XiYufPhtzrr1OLVaAWHOSWxcDFWHlMEtkG3PIGXtsKpTkvvjV86XiaLElNZbdfjStF1qPbv3FdnVVcJ5Dlg3njHeZ22JEelTiSzSuvHxJUYZVF2r147bnHf063BgzbNluZPhtt5I+uO49vcU1WV4c9n7dbmscRweeK2rz7/AJ6oytR0EiMHQht1llE7kD+n9PWuSXYLvJJV36fo7Y9tj/8ApP0KdT0R0mGVo/h+sbHv9eKJf8503CSb5FYfbIy3TXj1+zMK157jWh12LFKh2QihhYuNTQ7BjSodgilQ7ARUgCKQwRSGWqK1M2y1Vp0Q2WKtUkS2WKtUS2WBadE2OFpk2MFp0Kx1WmiWxsKdCsgSigsONFBYcaKFYMKdBYMKVDsmFOgsGNFDsXD1ppLiOz1vw30sBLbLbFy9dIiTJVJ2xXidvf5q9LBw44cFLieT2nHnPEcE2kvdmy+iunxLpVFNrdyVGUMYMncd/QVr9RrRPc56zaav4PKa3qkMVtAvdVs1uKMsvcrwvY7z3kCufExG5NLV9eh34XZlSc9I1Vcvzy4dzZWdPqiSS4tZFXVJyYFv4fTY7/Sq+liu9UtnW/uXHF7PFKlm3Te2wur6WWLF9Q75OJcSFIEyzL2O5inPs+6cpbrr8UOHakqqCWnn5P5Orpvw+99ntDUYyxLG5J+Wd2YiJ+apngqm8z1fiJ9rjGnkW3DT2M7WDUWCytDB2BBE74zOIGwG87EcUpxxY297d9/fp+1sawWBiVWlKvWtzc0ZsXbT3Fu+HfzxS3HmAIg477SMR/c1qqt14HLPDnBpSVqtf34P80dOos2URAlwvcf51YFQJJQggHfYmdv6b3hpxlS5mLt26pdNdWeJ6rpmW4xdYJMxyNwDP615/bsP/wBjlzf9b9I9rAmnBUcJWuJo2sUrSodgxqaHYIpUOwRSCxSKkqwRSAEUqHZcorRGbZaoqkiGy1VqiGyxVqiLLFWmJssVadEtjqtUkS2NjToVjY0UKw40UKwhJppWK6JhRQZgqu/E+1OPgDYpWlQ7BhNFBYCtOh2Nb0ruQqqSzmFABJP0HeqWG26FLEjFNt6I9yWXSogDFfDVVW4PlYwS0epLyJ+v1HptRjGvI8KLnjSbrd3XFdIxXuanVEks1uyNrrBtrikwfDnkkAye8zsNqyUZ4rrZfPh+T0P/AFYEecnt3Pv/AB5bnTb0VuymNpflJBYTmVO3mb157d+9dMMKMIpR0OaWLPElmn+vJHQ1nTeBIci8Niu0BT2yj3PbvWd/d3FXOzLNuD5V54Mk/YiARWmWzS73Z0iS53C9iYhVn2A2439yPSllM9orj11Xccr28ZBkyIMwAR6EfvCryto0Us1M5Nb04kh7XlcMMbXCiBu2+54Ijn34FYyhK04cKpcPPqzfCx1WWeqrV8euu8r6dqpi2WxKAzcHLSYCgjcg7R9TO0RlhyVVxS19eHcXj4Vfeld8OuJ2dQ0v7Um7fijdAFb5ByAB25P5GtJYMMSOV6PmZYWM8GW32+J53XdKuWt2gj1U5D7j6j71wYvY5wjm3Xd17no4XaYYm3vocJFclHQKRUtDsBFKhikVLQWCKlodgIpNDsEVIWXqtaozbLVWqIbLVWqM2yxVpolssVaolssVaZNj40xWMBTFYwWnRNhC0UFhxp0Kxjb/AFpuNCUgRTHZIooLISYjtNO3VBpdnR0rQG/dW32MljufKokwO5gVeHDNKmZ4+MsKDl1bPY2bZlLWntAPB5UFiu+0+szP5Qdq7qUFfA8xpz1xHZi9RRr14aZScEE30MeVBjkyk9yZA7x9TUSvEnXqdWHWDB4kt+He+T8PnwNfU3/ERbQEW7Qi0PbsCe5967YYCw9TlzNu3uZ2qcozAfM05f7DsR+YP2pS1VI1hFSSs4fDxmOxUj3BB/qDWeWze7DpwUcFePmAMEGBO4Ox3EUKISqUaZ05IECtKsSS7DcTtAjnb8960i2nZnlbdo6U0pdJEtsYXEHJRyZBMRxP/qtHJdcDPZg1WjyLtGKqwlchI+aAN5I25/wzGtEOMmqOXrHTLVzTi6hJvqYFtR5Y239YJO/ufeubGwpOVVtt49/cdWBiuDyvZ7310ivo+qz87uSwnxvQKTj+omfp704fcqe5OPhKDpLTgdfXrVpbbeFIslfLlALfMxg94XMH/utcN0qn33/ZGHbxVzv8f3R4G5bgkDjtxxXiYuGoycVse2naEKVjRVilKlodgxpUOwY1LQWKVqaHYMamh2XqtaUYtlqrTIbLVWqIbLVWqolsdVpktlgWmS2MFqhWOFpktjqPXiqSXElvkTGigsZRVKhNkApUOwm37z99qtxoSkDH/N6VFWFbWxMjaPz+lUoWrE5anf0C4V1NuNg5wJ32V/KT+taYWkjHtMVLCfdr6Hqera5lZrpVh4YxDoAIgHcjgnFWO8cV0VGMOmcWH97SVGV0e072zc8rXb83C5+cW1OKoSe3eN+BV4KyrO+P9mvaGs+XhHTuvds63tOq5EGB3gAE+ken17V0fydWZqKOW/Ltk8sXElv3ieCT67g1UcPLojRabFum6S91HKqTgPQ8SDuO0b/eonOMJK3uWnqJpNIRKlWZyPIFHD7d43kAjb2q5RW96Ck7KmsIwAAMoCWJdQsfWO36/wBbcWtXsUmziPxFcsXAumHpK8gRPzfzevZd/cjjxHnahVv464m8eyxks2J1+vk30/8A6rD6tFA86htiIeG4CncbjeBzt6VpDFUZLDT4PrU55YbjLK+rM+7ayhLiqsghsWAB8zAyJMHbkbbD61u/ui09b/A1a1iZfSbb2tQ1gkKHlWtr5iYMKJHJyEbnaCe+/JCk09EuX92dON9+Hm37zW6xokawyeaAWifmIztzPpweJHPvW0o53lfGr66+DnwZOOJm62Z4NxJn1rx53KTk+J7C00FKVm4jsXGlQxSlQ4jsBSoaCxSlS0Fi4VNDs6FWqSMWyxVp0Q2WqtUkQ2WpbkwBJ9BVJXoiXKi+5pXXdkIHqQQK0lhTh/JNGUcWMtEyG0REgiRIkcj1FJxa3Gpp7FjWSphgQfQjffiqcWnTJU1JWmN4RBxIIMxjBmfSKeV3ROdVd6Be2QYIgjkHaKGmtwUk1aLk0dwkgIxIiRiZAPB/Q1aw5ciHjQWuZepY3Troibb+bjytv/m9V9OXIhdow3tJepSllmnFSYEmATA9TSUW9jRzUd2KVoopMIX1/wA+tUkuIWArRQ0zW+G9KzXhcj8OyQzE8ZDcKP5iY2rXDi3oc/acVRjl4s1PiTSnAXGDKLzfMsY+cr/VS4571tOSdQvbQz7Nebh/n7o0tdYVLiraOSqoUbb7LjuPuPvW2C24XLQx04Fdy/c8MWixwklIPGy7fX1HqKtQhnzpa8S0w6nQ3VtqbhItyAjkmDlv5T6SD96UMbDc2o78V4Fi6YtayUH5xDHsRIH/AB/9fZzSxKb4deo0c1jSMxyXgTuT8p9zwIO81rPFSVP/AEZidY6hifCsZZsexjbtt/FvsO314xnOTa59dda9WFgp/dLbr2+Th6R0k3TjsEHmuXY3CxuoBPbfj9dhWMYrb/X3G+LiZdfb+z1Nm34dsohxtrKkg8llIBYbTJneNp710Rik1pr+H14nHK27ZRetBCuQlgIY/uggndSPmIBB9J9a3i8ydbdegUZl520urt3gEB7GZkgLuwJMbhjMd648SEZSfffubw+7Da166R6dlW47EhWLE7/KufmxIHfbIbjhj9aesYqtK+DjaPCdb6T4DSDNtj5TERO4/LkfVWHaubGwUvuW3wejgY+dU9zKKVyuJ02KUqXELAUqHELFKVLiFilKzaCxcKmgsuC0jJssVaqiWyxFpohs1eir/wCQr/5Ah8P1949+K7eyaZnH+VaHH2pr7VLa9Tq6Wtwrc8Uk2sWyyMwwE8HcVpgfUalnf207sx7Q4JxyfytVRX1C0xSyQCZtgbAnf0rPGTcYVyLwJJSxLfE0m0uWqLEbWlUkbCXjyrP6/lXQ43jXyS9TkWLlwFH/AOm/S9WVazTMXs3SBkzItwAgjMEQdvUD9KjEi80ZvusvCxI5Z4a2SbXh+jj6taPjXDBjI9jWWKvvbN+zSX0o+B39QuMupXEkAi1MEifrFa4jf1F5HNgRTwHavcq6jqnTUMQx8jgqpJx4Hb/OTSnJqZpgYcJYKTW6OjqTKqfhAj9p/Ef2WJx+kzVy2+3jqZdnUpT+9/w0XjzMWKxPRsIWmkFgj/unQ0e86Dp7Y09sMfIUzG2zXsjIJn6D2mtbaX29KjzZa4knLrkZfXb8+CpZ8RcQkLuAc2PtvxH0rXL9/Xub4O0qrZmnctecySt3M4liBiJ5Y8gj17b1al9vdXAximO2nbwbl1DtZg4GT+IT5jB2jYx3MKKzliVJRa1fxw68TaCPNJ8QX3u5XS3gSQUgEKD6dp9hHtFWsLLrVHXLAhlqP8j0KA3gbtpC6ON2IPlX0y4BEcj0+oApqNKTr+zDLTqjJ611ttOHsWDJuhSWG8cNO3vMD8z2FDhnqUt1sdGFhZtXsYPTukvdJCgTP4lxiIEngGYaefX+7lojoliJP4R7ZSG0/h2rYwtYhniG3ndgvMkflv8AWpjD6eJcnvsjlpy1OF2UwApVl2mfm/3A8bQImNvzrpSkrd3/AEBLltBDBmBOzIRADLtE7ztHI70RlJ2n69UGhwfFN7xLlhPDtyqmQpGWykwwnYccxxXNhwSk+OprDSLd9X8np9Xp7WIiQ65G4qgED3Uzuo9azw8Sd67aUczXI8h8UatGPhruAoyIxAz3g7cglzHOyzwRXTthyzcel8G2BB5r67zy5WuBo7wFKlxFYpSocQsQpWbQWKUqGhWLjUUFjqKghliimQyxRTRLZbZYqZUkEcEc1cW4u0ZySapnY2vvMILt3EexG4MVs8fFe7MVgYUdUkHTay7bGKMwX02P2nilDFnFUmLEwcObuS1FbUOQVLEhjLD1b1JozSapsahFNNLYazedRipIUkMRHddwf6U1KSVIUoQk7ludDdQvsCpdiCIIgcH8qv6k3o2ZLs+Cnaiiq7edmDMSWEQfpxScm3ZpGEYrKloB3LsWYyTyTT1btjSUVUR7t1mgFpCCF7eWqvvFGKVtLcrxppF2OUIidjzvVU0JNMSgs3fh/qZBGnuH8K5sD/A7RDD7cVcW7tbrqjn7RhfbnjudnxLp38AXRl5d8V4BVl3beZIyY7e9XmSl113E9mrNrWp2XFmGWIuAMPMphWE71tCXB8NDFKtGdFqQsK0+JtcAngbKfoZmfbtUSpvVbbf2bRs871fQMv4qgHKQyd2jmRHPuOYJ2M1vCa/izpwpJ6dIo0HVr2nRhp7kW3+ZSAYJ7EMOduQIrLEwIy1a22Nsqk/u3+QdF6e2qu+HbCLcaSbpJkdyRvCk8T70YmMoRzNFyVfg9Lb0Nm3+ChKgEyZZiz7cwvsIqIynWauvUx/k9dwXAohlMB5LCD5ZMD6iQT+lWsz0fD3F4FaLk2BMNMQYKz9O39KtvKs3D3Czp1enNqbVxfxOVcdo5A7Hbv2jassOaxPvi9OXXXMruZg6bp51OvCqiutoSxRjuohAT6bJMQPmoxJqMM0tP31RorUKXVanpdRft2LLll3aQOYDSoAEnfd1naCAR9clGeJNU+ulocqXA+b6pgWMcSd9/Mf4j7n+9bYjt0ehBUjnK1i0UKRUNAK4qZaiEK1m0AhFZtCFxqKEQViSOKCWWLVIllltoqk6Iass8SnYqLPGJEbVWayMtBFz2p2LKN4lMKH8TbkfSPbmr4E1qMl0z2Hqd6aE46CTQVQRTQhg0VSY6IXnnf61Vt7jSrYFMaO7omlNzUW0H8YJP8q+Y/oKq6VkY81HDbPZdQvG5YdCHCks1zFQC2RMAx3jIT7jaj6ajK76XL2OTCbjSOHoFoPpirGLunOJQjzMpMqx9RHFXLEcZLkzbEjG83Mtst55A3U9zvPYfWtpL7asmJ23b5vM14JIBhoBXflYKwRMTPaD7VzqCw4rDbNrcnmMfV/Dtsur5lPEI8RTzg372OJg7ETO/O3FarGlTVXXXM0jiSSo0NLo0spNiTbBaWIAdlJUDIjkST9u20Z228s9/biCm27fXA5c99+V4b6dj7V01yGmW6uw6OQVMLtEEgiJiRU4c4zhdlSTTJatSysNx37mViAfuo+9KUqTiJ80XdQ1vhWyzOFYbWy3m838wg8CTx7d6wUE3S/HXIMNNmP8IWiM9SyFfE+RlOKxsI322AP/ACFa41OoquZpiv8A/PLrc2us6fxNN5I28zMQRywA52+YISdh5TMzWeDNxxdetOvUx0vrrY+c3Rv23g7T3E9/rW2JGpHfF6FRrFjFNSxCtFS6EIayYCGs2IWoEVqa5xscGmSx1poljg1RLLFNNEscNVE0NNOyaCKaAf8ArVEhUE00mwdEBpgNNUgBNMaQRTQwzVgd/RNcti8txhKbhhv8rCDxVbqiMbDc4Uj3SXfHIdbqMUAwFvmAYDR2jmd+KnTDVVo+Z57lJ6Nanneo2DpLw1FoMLJ2uGRLoSMlA23HYD93k7GtYvMqfXLr9HXhv6sMr8vH8M2tPcW8LdwS1uC6oPm3MAMY24H/AFSuk1s+ZmlkdPdGjcsKqKUPrKADb29/15rBTcpPMvMp1SaZzMqE5Y8rB82wIO5+3b3rW5JVfHkUp8kAnPymBIxAERjwOO49adZdRxlbs5102Fws/wC6SQOxg8/Sdvr9K0eJmglE3umXrbdxkAdvmPqDwffv+lZuUYOiVFy1INQyqy54qfmJdZJHE7zPaB696TjG02rfgUnLZP3PKay9d117wbYfw1kNbOJ3Qgnf8gWIG0dwsnoio4cc0uuXX5OiKyrvPW6TTWraBTsikfMZg75QF5JjgDYD2rllKblpv3fs55a7md8R9ftAQgiRAGRkATwNmHmVSZgnaBG41wMBx1m+v8vbTv4BGGd6I+f3XBOwgbAD2Ajf3q8SeZ2d0VSplZNZNlCFqlsVAY1EhFZas2FCE1m2KgZVFhRSGrnHQ4amS0OGpktDhqZNDhqqyaGDUxUMGpioYNVJioIanYqHF2OKpSoWWwj17f39KfeHcTKmFEzp2FEzqrGkNNPYYM6dlJHTouoXLLZW2xMg7d44B9RVqWlEzwo4i+4+j6a8HtrdZQ4vICV5xaNztwZ4H9uZq/tWlHmqLhJnk7qXdFcZrPnsXCGvKIVSJmFmN+fL6jaYkdH8v5L9HZccVU99l+/yanTer2r6+VwGguVJjHEwd/pv9uaTdbmUsCUNGaPjSuJXzTORkFhA2gfkZ70suua9BJ6UVePjuQB6CBJ+s9qvJY1odeo6jcub85gAgCD5eYI44U1lDAhDTkbOd6vrrQ4+ohbCKXcE3JKDuxHCk8Kefv32q4TzyqKHks86dTc17raUlbDRM7+G07kMfbvtzG1VUYLMdCSw1rub2k6emnytIoNwQPFXbITliBxG0+/2iXJzqb25UYym3dmL8UdYAJsoAMB2IPLFYO38pY/7gOBFaYdwi5t66e/XVl4WFm14HkTc7/esXK9WdtAFylmoKEL1DYUKXqGx0IXqGxUKXqGwoQvWbYULnUWFFYasAoYNTsVDhqqyaHD07JaGDUyaLAf/AMqhUHxKLFlCHp2KhlafaqWoqDnTsKDnTsVBmqCg500woni+lNSHlNLQ9Jv31NwYhO9y4wUHeNidzv6Vsoylqzmxe04WC8vHktQa/pN2wMri+ThbiEOmXoSOD9aMtb9epWD2nDxdIPXk9GZudRZ10e6+E+sEWBaDhWXylSR5rTsTIHEg7QfUetb/AE4zSbX+o8ztClCbfBnfcwZCGNsgE5+YGREjJQYI2P8Ay7zWnHj6fqzNNrVHHr+g2bobYpqSchkWCi2B2PMR9eNqnM073jt59fs6cPGcVRlWressea02aZBEAgkxupISTttyO9aSadqS68TVPDlvp5lmu6rrbjMxSIcCRbMZ77CRMbenpSjDDiqT9315jUcN79fsVbOsdsGcphc2yDjzNyAHgEeXv7etDS3X5Hmw1w68uJfqeggMy3L5ulSCij5TOxgcA7iOZinhtySk1p3/AID6v/yq65mjbVVFxUCoMgTbBG8ZDk7hvQH194ppK09+/wBPbwMpT5mtYtriQQrHLJLge0Nh5uCT68txvXNKTzWrWmqp9ehLnFcTwfVejXWe5cysgZLkfFtgSBAjiZMn7V1z+5JRvXmnw/06cLtEUkmn6XuZOq6Tftrk1o4bS64uonfdkJArmcJdfjc6I9owpOk9fT5M43KybN6FL1DYULlU2FCl6hsdCF6hsKEL1DYUDOosKEDVimFDBqaZNDhqYqGzqrFlGD07JaHDU7JoYNVIVBzosKDnTsVEzp2FDBqdioOdOwoGdOx5SF6LGkfUdNrAFAZR4HhWzaGIIKlVkDLmDJr0/p3rHe3xPkp4bzNp/dbvXvfyXarpqXlYZBbDWoZ2xS0qknEsx4IbzDaayeJlVSWt7bvy8u817K8XMq3T3b60e3fwR4A9CcsUS5ad1BOILqWjnHNROwn3qXgPrpnu/wDmQSuSaXPSvZmUzFTBkFdiDsQQe/oaxbcXXE7FTVonjtyGP3NPO97HlR6r4a601xDYuGWUTak8iMcZnaASR+XvXVgSzPXf+ut+44O1YCg862NvxIYFrYAUDMHxBkDvPuxngD0j26GtHUvDbqvE5rvY49V1a0hIZokQIBP4kg5iJmV9+W9th/bTfS5GkMOclojQ09+389lyxJHmC5ASB5iCTuZOw94kb1DuSqS08euuQrktHocPUNd4CZhAXfYLLIRPBBHqYg8gBj2BrTK5acF1/vD4KhHO6s8jd11xyCzzvJO4Bb1j09Kh4rtJbI9BYcYrRfk7luuyBiWJJIkmF2j8y29awtoxaipUi+2bsyMGwtsxLqMVU7HEXNm3I3HelLl17EfZ78P0aXQrwti3eIeAzAKmTrkoU5FZJ3JVYAXeN4qcS5Rcef764+BzY9tuNrz08urOjrvVOl+UDRre1ML4l+Xt2wxgnJUbzsNv19K4VhYv1LnLTlSb9WjpwFNYGVKnrrb9lfvp4GA+rsPcx/ZrHgAQCFe2xCgkHMHLJiPSe3vXWoRfS/A8uKo3nebyftsZnU+moUF3TyBgWuWi6sVCmCV4Y9jBEweSKwxezfbmh6am+D2iWbJic6TrpGCXrzmzuoUvUNjoQvUNhQudRY6CGrOyaGDUxUNlVWKhg1Fk0MGqkJoYNTsVDZU7FQcqdioJuU7FlGR/XimnrqDRM6diomVOwomVFhRM6LHR7P4b6qX06Izf/HZwuykgMhKEyN1kMD+Vel2ZpxvyfXgeH27s+XGckv5Jez189meg6ree5pdP4kyWYGCVLPuA0cHbDjf05q8OEFiy8uvk4sGozkofxXT860+Th6kmCvcfLMMuY2bJQdgQfljYz7D61sq0cVoaYLcpKMdta4a9cDg610n9ptLqSUtssB3xYLctk+UqiiSyyFJiOK58XCi5Vb+fJ6+nmdfZe0/Qk8LVrgrVp/h7mOPh4EQuoTMjJVcFAVmBDSYJ9DFQ+zJLR+3X9nb/AOc09YOu7XryB0/oF57uN1hp8TGT+Ukg/wCmP3h/MNvepjCd5n7dafPcVjdtw4QuCzeH9/jc19V1O2qtZtExMM9w+YoqwFLrvEk7Dnaa6t931zOWGFNvNJen7MR1VyMYEkAZMoUMe3J29yamkztTcVr7Imna5ZBZGIg8qwIy9h3kLyP6U45oruHJxm6f7F1V53Ks2RWBGY8pI+bYCOf60pOUtxwjGNpVfduNatKHUs488FSsMEk9xxt/Dt2rXDhqKU3ldLbyvrmaFqwUOLQFaQrtuyAHdwnZj78z9DWqT66+DnliKWq3+e6yywfwwLdsXGuyz5kqSlttkQhu4B9zO1KV79ddMUnUrk6S5d/Fg0ujdfDuSwN1m7MvhARADkgQYIPsNppKLt2TiY0HmjyXr5avw79zO6nlbdhKwggW/KVi7LfhzysHnnis5NrVe504LjOKeuvHw01778ivSBx4flyRnLi3swMQGLAbj5T6cbU4p6Iqbj92tOqv4NTSi3iXe2IGTNu/lVFJJ54MgfpXZKCirWniceI53li+7xtng86+WlK3Z9BQhes2woUtUtjoXKpsdDg1mRQwNOxUMGqrFQwagVDBqqyaGDUxUEtTsVEyosKGyp2KiZU7Cg5U7Cg5U7FRJosKJnTsdGt8Na4W72LEBLwwcngbyrfkwG/ua6uyYlTy8/nrQ4u3YGfCzLVx1X9+x73prh7TaK5JZDuykHcGcQQZgqp9pUetd0lrnXXXwfO49wl9eFU9V6V/ZntceAcptq7BiwDSV23UidwZ49a6Y09NjpShdVTaXXqVfE0h0XP8MWrSgAEZW4yLAcRkfXkfSsErXm7NexO4t1rb8ny64GabCAsFbIqVKZeTJQccY3AJ23nsapRs6VOdJtVvda0+u42bWOtQ2HB8WxP7LkTibfK2HPMQDH0+tZyjleavH8/n1OeUpYMliOWjVPua4rrfxs5enaC1bsNe1S3FDnG0oPhrcxGWJMFseN49I9m008qa7+7rvf71xMacsRLDp1509P6f5KNH1XTKDlpLWJ8uIa94mBmXDtIkbdv70tWtHXkvwn7mrwMXN/Nv2V8tOfmV9Q6UEtftFi8LtnyltiLtokkY3AogCRGR2NNN6pqv78PxuisLGcpLDnHX29/6Mq7cdUV3IIDHw7bsDI2Mi2f3NvzoeZas6YqDk4x82l/fM7tKh8yvbOQKs2nUlZDAwcRwRkDvAito6o58RrRxlpqsz16/J06om0HGwCzKlAwLMmKnfc9xlxIkc7ayaq0ZYf35e/v5O3+a3oqt43FV9RdH7OtuSCGGDAquFvaPEICmADsd+ZGTnScn13vu6Rcs0G44cfuv1733ddwl349Nry6Wxb2/176i5cby4ki2PIn0E7V5mP2jM9G/Wl+X5vyOnA/5qj92I9eS2Xrd+LV95Vq/i/T6lANTo8bimS+ncKlxoAl7TgjYAAQeJp4Xasv8na5PX3tP1sqXYcSDvBkl4316Uu5mYnUNEu/h6hiJ8uVpFMztIkj9a2/8rBi7Xx+0W8Htb0zRXq3/AEcnVOuveQWlHh2V/wBMMzTJncn37QOBXPj9teInGCpe/wDnd7m2B2OOE87dy51XoY5NcDZ2UKTUNjoUmpbHQs1NjosBqSKGBoFQwNOxUHKqsmhgadhQwaiyaDlTCg5U7FQcqdhRA1NMVByosKJlTsVByosKJNOwohaix0en6B8ThcbeoLKFEW9Sn/kXuA4/1EB7H9a9DB7Xf2z99v14/wCnj9s/5rlc8Gne8Xs/Dk+tD0HxDp1Tw71kzZuiTcWMCxjzLBMHbiu2GI+PDh3HndhxHPNh4n8lwe9cmS+/iWmtamRd0yDw+C5sQGIAJ3gmfUjjeh1meXj1ZSco4kZ4WsZadydv51899DDwGbqD4ktFtlgLkWEZZRsfShWd9vKm9Oa47dx0XNeVYXrblNSmM+VcbjK+RO3fYc805O015d3XwiMPDr7WrjutdVppv0jc+KLzamxY1JXO3ldGoW0ylkvFQZVRIxOJM+h+2UILDlLDrgq8P7fA5uzReHiT+5Jydq9OOtrhd8tWu48bYuANnPmWCsrIJn7CPSKcWrs9aabWXg99evk0uj9UGluI+WVpi37RZgxiSB/9htMdo9d6cmqav9Pmc3aMB40Gq10p3vWtdx7G91HRWreVrTK9q6rH9otFxfQgA4uWkqQA2/Bx96iOHjTlcp0+9fa1z0OJuUv/AFNK1zbW/qnWmy1vxPK3unm2wKP4mmLnC28qCSBmpIiGxKmZEgHbaK7MOLctXr5Pn3de5vDHU4vMss61a9nx0vu05iWtK2puLasyWdgbShSFhSu/E4gswk+g23qpzioNye2voaKX01cl3Pnb4eL00XPcxvjHqIa6NMmJtaUsuS7i5fJ/FuT3EiB7D3rx+1Y6nPr08lv32d/YMBwg5y/lL44L01POlq420egLlSsYC1TY6FJpWOhS1S2MQmpbHQpNQ2OgTSGODUkDTTCghqdioYGmTQcqBUMGpioOVOwomVFioOVOwoIammKg5UWFEyp2FEyosKJlRYUTKnYUTKiwo3eh/ETWk/Z7xLaRjJSASjTOS+onle/sa7ezdpUHU9vj9ddx5/a+wLFf1cPTEXHg/HvrZ+tmhbLLjfsHxAuJVldbhRliTctkAgH0aI9+/pVesdb7+vm/A5ZZZXhYum+jVWu57elnf1zRAgaiycheclyIxS6D5gYJESSZ7AnmdrcLuK3TXp1voc3Y8dpvCxNHFac2uHDlpXMxrGpuhltLllbY4Bd/MTDQRzMfp71hGUry8j0J4eG4ub2a1vlwOz4f6u2nDBHAG5ay0eE6hSWBk7PsAI9fyqoZJKpbrbu667uftvZI41Zl5rdPh4rmW9b0n7O37RZ2094Hw/KpxY7NbdT8sb7j2iqf229mlry8fB/6R2TG+svo4n84767rg01v4GPbts5AUKMVksWKjCfmMn+YcDuIFTkk2kkv0d8pKKtt6vlevL/TT6aVuN4al0UoQWUsVJUfiPiY/c2x/wChXRDK9N/g5ce4LO6bvz12XHjrf7LbFpgrKijAOFDMwgXF8/iEjcQkCF/hntW0U02o9dbf6ZznFtSk9avRcHpXrz8OIeo9aOhtlQgXWXLbW7ZDebTWSQSfdn3j0G9ef27GSS5/Pf4KvN+Bp2TAXaJuV3C074Sl3eGz8Xx28IWrxW7PeBlRYUAmlYxS1Kx0KTSsdALVNjoUmpbHQpNS2OhZpDosmkRQZoCgzTFQQ1FiobKnYqCGp2FBDUWKg5UWFEyp2Kg5U7CiZUWFByp2KiZUWFEyosKJlTsKJlRYUTKnYUWabVPacPbYo6mQykgiqhiSg7i6JxMOOJFxmrT4M9J0j4xKSuqVrttxDYtiwacg6g7BgSeI5r0Yf9HRZlquK/tfPweV2n/kKVPAai1tateD416nMUssC9m95gRgrm3bfEmN5YDP/bIjfauhRw5/fCdy9OvbuNrxY1HEhpxq2r9NvHW+Z3WOmOVUlrTfOoVCjsAROX4ZJLSSATxtJrpwsByaUmnXl52+Pn7nNPtUVJpKS2etpeGtKuLr0Nzo/TNU1vBbQazcYC6l7ZfDUeTDEyCBHmjn6GrxZRjpe3xy5ep5va+1dmjPM5VJbOO98bvTys5dd0/R2yc7V9FZgGUC04Qru/hknLGdpK9qn6H2vRNefxwvjRtg9o7XNLLKLdd6u9r4Xx3KhrdB4WK3rlqC2AvAOULATgtqZER823Pcmpjjxwl9zS8HrtxvxNPo9u+pmcFLa8ul1zcq9tfI59b8V6ewrrole5dfKdVdgYzMeHb9pPIH51x43/RvRa93D8vrU1wv+Vj4zi+0tRiq+2PHxf4bPF3LhYyxJJ5JJJ+5ryp4kpvNJ2z31FJUkITU2UAmlYAJobHQpNTYwE0rHQs0rGAmlYxTU2ME0gHmkKgzRYqDNOxUGaLCgzTsVBmixUSadhQcqLCiZU7CiZUWKg5UWFEyp2FEyosKJlRYUHKnYUDKiwomVFhRMqLCiZU7CiZUWFAJFNSrVAWJqXX5XYewZh/Q1p9fF/8Ap+rJeHF7pPyQburd92d2J5yZjO0byfSh9oxWqcnXiwjhQj/GKXgirKsrLJlRYUAmiwBNFjok0rABNFhQJqbGKTSsYKQwUDBNSMFIAzRYEmgQZoCgzQKiTTCgzRYqDlRYUTKiwomVOwomVFioOVOwok0WFEyosKJlRYUTKnYUTKiwomVFhRMqLCiZUWFEyp2FBmiwoGVFhRJosKJNFhRJosKJNFhQJpWBJosYJosKBNKxgmlYyTRYANKwBSGCkB//2Q==;shadow=1;" vertex="1" parent="1">
          <mxGeometry x="853" y="173.03" width="84" height="55.9" as="geometry" />
        </mxCell>
        <mxCell id="yRE97sjeFo4-obtxFWHD-32" value="" style="shape=image;verticalLabelPosition=bottom;labelBackgroundColor=default;verticalAlign=top;aspect=fixed;imageAspect=0;image=data:image/png,iVBORw0KGgoAAAANSUhEUgAAAP8AAADGCAMAAAAqo6adAAAB41BMVEX///8AAADH1CUAdyX93QD///6OvQ/WAAAAiS9CpiryZyL3oRbjOgH9//////z//f8YGBj19fU6Ojplm2lSUlK9vb14eHjt7e1xcXH68JvD0Rfn7aRnZ2fFxcUfHx////cuLi7RZmiLi4v///Da2toPDw8cHBzj4+PZ2dmOjo5JSUmoqKjZAADLy8tpaWn//+FDpS0AfRqampoAYwBZWVmzs7NCQkKJtQD++9P6nxP2Zhz10LQ1nBmezJTgOgDhLQD/9vAAiysZgTHKAAAAaQC8AAApKSn9+sv//+ns8bHY4I3U2nDO2FjI1Uf23SPz3zzy5Gf154P686u/zTD15VnJ3Jfmzpvy0pP/99Dc666ryGCUvCjqqDHnnRrtuWP24q7H3JHm8MO91HztxXrN2FOqx1yavULqslKvw3Diu3bV6M/879Hy28q33KvVXAjrtZJ3sWXgjWBdqVDbfkjlpHur2KJCmS/eai7T68Xu/OfjkWn11L5mqliJvXvF383rzMXJRS3GMxORwprlnZDWcV6w2Lnuuat1sX3ZhHE8j0nJTDboqJZIl1g9fELMLy+6PT+CqofUhoYZbSfvwb+/Hh7/5OOGqI5MiVrEWVYiAAA0BAZPCAl7CgufNDiixa3RR0bZoKOr+kRQAAASNUlEQVR4nO2ciV8T1xbHL9JBWe6dBIGAAoMMEBZpGpQlEUkwAnHDWvXhAiL6qu8BLq2tmrrghkvVPtfa5b3WP/Wdc2eSzCQzATKTBT7zq1aYhGS+557tLoEQR44cOXLkyJEjR44cOXLkyJEjR44cOXLkyJEjRzmUUOgbsF2MMcKUL6lA4Q9ekuRoNOrzDUUFwqITQ0M++FZmAuP8lOJzCGUCFeB7gRX0/i1JHU4E41REig5NHNh+8NDhI8ePb9q0bTtwNkx+MTl59OjRr481fDMx4ZMRlwkCW8fYCTFuACrgvzDQAH7k+KZtoE1cyE8bvtBo8uiJYw0HfBIOPLeAsK4jIo4P7AcPK+ibNAJ+oudPGAFswPDngX89W4ChotsPH99kpPTx1xjhRIOP5wpCCw1hQQxGkW3fZkjP+akZP6gBPEBaf2kAQ5by4JWGTp6UBDJkPPqm/h/3gCHKpH9MnZLASOgFWDqEYncGDFbG0x6Lnj4zWHY2CmY4bOIAmflPSBA604GZc7NRqB0snhGLWlDo+I0SwXf+0mBZWdngnCAIZgGQmb9BEOipysrKQOX01ALUT94fFLsFwPlhlKS5C4NID7rAGPVl4//g/oRdDFRyC8xcPCWpTlDUQnpRmjujwoPOykSQ/pkF/1GJEHm6UhFY4BxYoPjHH8f+2yQ9BgDctEkAZORvgMo5W5lQIFCJFihyBxCEoTNaegwAMIpJAGTiB/cX2MVKncAHeE9YaEoDUXR9AL2QQl9WdklmVD5k6ACZ+E/IlMmXA1r8QGVg5mKUQSIkPBUUkx14ny6fPpuGzyuASQBk4ofmh87OVOr5QdNTEpYCofjKIdMHfoL/AjjGhGELlIF/cgJG+GKCWmuDy6fABViRZUJBiJ43olcCgMiGLVAG/hMyoYnsr1dgZipKxaLyfhz8Syb4WAEIO7hG/mMwvqdmDPkruQvwNy00dVLSv8zwy8rOmwWAOf/kBLT8UwEz/sC/JQZTgeLhF4jvkim/aQCY85+QmZiS/bWaXoDsyPlZ4VZIBCXrQ9Wbl0TG5kwdAAKAEaMAMOc/BtlvwYy+cmYWpgbSIlOmhYVLBHy1UpT2Dl8hcC9m+a9s8Dw8b8jY/43XPyD7Uzplyj+FqyJ7rl6TaGEjgPtf7Ppw+c3bMBDyt6YBIBFBPrIG/qMyE6RpM/e/LFNKF68Gg9/JVJlvFkTQhTFRmP9+uPyr8rsSWGLurJkD+OA2NQGwjS+BHj9+/AC8yDeTk5Np7g+TxoUZY/7A9Cl4X/lGsKIieGMRe6FC8TNKyPzN8nLgH76H6/ynzSLgPHjKxDaVfdORQwe3HzgwMTHkk8Fq8tDExMQ33zQc+/po3A6TE8Bk6v6zFAz/Q7ACDXDrDqEFSQDqe15R8MvLIQVQQUrv/hMBwKJHgP34oe2InQhbKGK4L0DRj2Xf0IGGr9EGR6OUSpeN6QMXYRJI91SourWHFaAT4st7kPh/HC6P62YMLkQvGfOfnYMCcfDwdp+8wnqmIMlDDScauPsb41+OUkYXb8X5K65eYzApzn8QCILI9g7zsVd0XYKe1CQFDJ6HG2QS7gVwmb8sTvAlBlE9FUgLf7wwcwpGX/oumOAPogGgFWB5XBlVduUEHX758F705pMGETB49sIcw42MVU3YgAachSxcnObAAT3/FO4KXqvQKFgBBsgnPfd8ZfQ1/F99NXwbx+5MGv2lkz7VPVfhpMrqKaYEFp29nBoDgXNQSaH0VegMELyG+4U5ZtYK7lEkenzU9zF4zKePgMFv52SeLGDwV5eplZkNRT+QZ1OS4LQPKn/4hn740QPyvBggiJIm9cU9YPg6bnVri+DgmTl1oqZ4wMr3iNMa9GWqbpUvnEu2AYGZWaj20k9BHb0SAlJ+qoCA61yYpK4Mpww+7wKu4GZ/oggCvaT+GL+5Va5YqU+iyvtJp84l+Kdw1rMnWJGm4NU9JGNatU+Yfwi7nTb6igluw92rffDgpdOSxf1rgQeCpEZB4JwMw794y4AfDHCHxidkOZXACz90famjr6YAaHTEIUwBZ89HeZtg5YYo5xeJPIVBAKWPUemGAT0a4NYivB0VclsIwMdw1h0zxodrw/eAmZ0eHDzjUzcrraQlvv9N0eQ+CIJZxvtew+FHAyzgFmmu6yC8gSjfTc38iRr4FU6FiXTytKwsTVjzR/xhZaUXSsEUbn7sqTDCV2wAs8E8HBZgonRvOD7cBi4AfbDINwNwidZiWyoopUBQPAn+1fS9Bgb4Qaa53hzB2bZB6tca4LqEhV7EZzNitS9VdjmoGgravtfIANcozbED4PbuFePcn0iBMVH/A3aJscUbGfiDWATVHdJcrQvhQIhMWfIwSn/QAtyNCbk5pIGnBxcMHSCo/LmxiJsijJ8WyZGUgkTkewYuoODfk0nOXBAMIBvnfzQARD9Og/C0GclVFRTJfezxIQagAqa5AODvhUlwrpIwLnVR6ZphBQjydRBGwkuYM8SctUGxfS/mGU5PY3fT+3/sf0kOlyL4uVi252qaAYLB7xah76B06cHDRQjQnLkg3eofLX3Em3ppb7oBrqhnPXMTf+phUpJmgCBfCYc52eNIKPREojnJPzDDFsmyf8uWUf+rGN6GdPumPg1C64MnlnNVg/lZaIJrn3oDBIO37vAFkI9PQlVVVaGnVMxFFQSrirF9o1tAo6XLTIRgi91LLgGg89v+nkbCDn+PZgEkWPGTTHEp/unD0AjwVz0I56QJxsz6zL+Fa9T/DJyB8EWAeBocvpIrv0+5D5wFJNvg4NWneDCMhp/D4CP/SOg5yYEBqCiQef/oFlX+F/P88u27qgsM/5ivhXgBfT1eBYI3FqgIY7P0s4I/MjJSFVnMgQGw83mVwFdigCRbgeF7/FMOeTAAP/xD2DUl9H+QcHrInkZCQM/dHzIApEBx5Rdas5b9Gn6Iga0xDoxpcPieckg3D8vwPAtCH/BTsIInPnjb8JOQ4vr4dwRTYA4CUZT2JfBHkzEA09PYdWh68QsxL7sQAu9wqXwj+F0Ys7Kw9EDBj9tgJPQgbOs7MvzcDnnk35Iq/yPu9dKVWL6PYkAQLELig+GHol+l10hV6CWxOwXw2jeawj/q/wSzfbBB3k8j4ceJNEU/VVgDqV3ng5TZt8HwgwFG9y1zOxfiHIJa9A3wq0KPeb22666gssX2pQ5+ohXAdjjf/AKfDoWfR5JpXxsAVQ/DdvEry/B8+NMtAFdG98/jdDP/n8uAzLeYGvoKPZaAl9go2cEv8MO2ksnwYw7EzVcx7/wc72UoffQTGYDZ82kZvoS/bBT93ANeKVs8+ebnm2M0rLZ9eufnGeCpunBo/Z3gP+mF6fDP2/AWWYsuRapSDaDqZ4naNBEWsPM3w39GctFqrv7enhvmf7BJZAnP5NnwDphFnpkM/+i+WEHxIQIemmSA0BNiTwIEI8ZKTfj9jwp+DPuliQPwEmjHzUEjZdj7oF5IBR1+vLvwAzMHeGnP2EAAvDIb/uUCH8HGzcGnIUP+kdDPYXvegszv9xsaYPSFVOCPp+NaSNwBUq0QGvtoS/qHPjO2/KrUP4o2GE0Z/oJ/CIlqM0DSBKGHT14u4pqVDe+AiymqCVKGH/dCChoAuNaeLAHq/D8E8E/DUPxEO/ofnN0qLxNb3rpPmwgh+RN7UmzWwrUvkT3WZgAFHr3WplmJGOOb77j5RWPLz7gXcEcojRFa2O5HOS7KPo7FXT8Uec7hmfLxkI82DI4gvX795r4U/0g/eMGzfTwXjD7Lf9efdnP8DtgTdIBQ5MHzpTBRVn5gbrz09pf/2LEPGnvn37/r9Zt5pBeZAF4gcRNA9isCfj7LeR8KRR4+fx9GdgHPAIXfv/07snkzVoDst6NUuOVdpSD/rnfcC0RlI0q6/eiTZBuGRdHwk8d3+CoM/y07AP9hbOdmUOQzP0xrLQrelMYFXqBuf4tgBqnQg5+QwMIwMJQf/gq/3/FLJLJZ1Q5iaTOYJ753pRrtf7d1OUaJXYsr9ghDQMK57sf3O8Yim3fG6Tfv/GCtP0H+2K5SvbgJCDdssQi3pkn46Y4PiYFXBQnAyhE85F/eX5qm/bu2LruL5zczUYF9/PzbWCo8JoD31MoZROxufvWn82MuuG8ngTXBML0fS4fHAHhLst+WxYU/gX0yxC99F7OXwZIE8vEDx1X/JvUbZn8riTr2zpj/U4E/eqkXZb8Zjv/mX8IWqh86wHxq+lMzwKMiyv8YAY+N+SMfLUxRkP++QfpD/vt28Ht6m2qbmpp6ezs729q8HpQbtPYXEshShPv+zlT+99l7P/91jI+M+XfFLPe+na3VrhKd2l2ujubx8Rau6uqB7t27G7+sr69rbW3t6urq6+vp6envrwVz9aK5vF7FWoq5wmMRrlQDfM7+BvEja2Srcfi/JhYPe/R2l9in9nZXy+9/oP78kGKAHdm3f9g70dfG/FuJtU921NtIr9OfY3oD/J19+udTS+P0z9Nf9vxt7bnCL/k9hR86YCvzn7TuVw3/ZSv8OcSH8df7/1jY0u8MM+Oft8DvyR39H/9NGf6dUACzrlQQAPeN+d9ZOfBTkzP4D+ldcGQp+/qP/Mbl77WFj1v25AS+uut/Ywb131oDQMhfJvw066Ti7rAfvqW1k5C/09jVBiBbfvTwR4b4UP5ItnVVN/yNPbU9jRbhXXW9ND4DMDDBW0uHMt+Y8TMhy5Xv6uSd13j5Fa+FhNBe14QvgUO1w3D4kT/LVIUbPyb8b7Lu/jTJvyZxcXeW9I1N6lwBfwPEWwP4ncif9UyVmba/b+JL72tWf+Lmm5PzHE9zNvD9mokSGOBtxGABaHNkR9Z7ABg3v2411F9Z/+6xrsT9d2mu9q0VvqbHo71TKlL6eYehPmfNL+AOovEjJOumItn4t2mutq0JvlsHT5Qz8aaUFhZqzH8y6896JLO9dpq/hpawpc9rcDcmq1yUUrtOgdmkLxMg2jFcLX9LVzr8+lJrgqVWc7VpNfAd2OWsdyUz3W7N1ZUL4HjdBoAH9SaRkg7Qb86tqK4pi0XB4pSGqle9lNn72xtrM77gOtOXGrQ6rIFtraboJSldzkZQrw6vuTpT61eTWug3glbb7A/0rPdaZ6xV9XrVBl3ORtGKC0DVXW0rv8o6VubF/43Q5awgUwOM1/Wu/NMbQMbz3fqN0+WspM6BFPYN1uWsrFrtBmhN/wYs9CvJ01PX3dLSUtO60Vo8R44cOXLkyJEjR44cOXK0otqaanvX11S4tsTFd7Lq29vjO3rNLlcNIbvbXQl1lHhJU0mH+o2rAya8Xe3t3eq8t9rlquZf9HWoi7/wtWfc1V5PSI3mVVwl7s4S+L+yNOwed7naC79QWlui7OTVwb+NyqUOfrZHf67Lq93lchFlI1g9AVQNyPhv4hwU2scDr1KfeljSw5cO6/hP9SS+Kqi0/OqZlmZOpt/n0PHj2Qe+66Xcv8rP18XHcUMIXwbPBAG//pi8RzkpwCPEVaI/Q1Eg6fiVPV2Fv62ts82Lu329bfClm/P3eBWR+EGAHny+yo8n4/A0m6cPvVrlb+vs7PSCKcc74eVwZbxLNRtaq69AzFrp+XlsNifPttWVJA56NJXozjyou56IpPK3l5QMJB9X+bnAii3xoebnR73EDQ+PF8Hwa/nbgaDavXp+fD5yqfzjcX/gMuPnA1/PzVcUK8Ya/ha8tdZM/HU9qD5kAYBmNYWp/NyDBnpUUC1/o5afxwmemOjOD+AK0vA3832NJjX/c6XwJ9KYMv5uNEB/nN/dojxaz4uaOX9nIqUWg7T8bkz6ze7x1fJ7+GkIz4Ba/zzxkolRYM6vpprWPAGuIA0/5CM3jp85f2NXK6guyY9B3xiv/4R4W8c5W1NGfjeWvpZ8wK1C+vHn35asNv95EsdBquOX3U14IGR3Rn6ihE1xKIVfdc5V86t1sDr5gNfFG8RM/LVqp1AMSuXnzrkGftKSwk8G1jW/EgEm/F29ito0/L1x/v7ufq+beLqUb9ctP5/4ZM7/2OAn+PmUBvk1Ux0oAG6z/ocULX+Hco/elfn7lLhXHvG0c35v8uEv8apLN/7jxcrfNNA9gPfS2l1To95jV3d3/M7hy26Vv3egRhFcgvHtSz7SM1CDM+feugHs7cd389TugefFS3xdd3eNlr9poGZgQx6UcXu8nmKY1Dhy5MiRI0eOHDly5MiRI0eOHDly5MiRI0eOHDlar/o/lEsUPtXW1/4AAAAASUVORK5CYII=;shadow=1;" vertex="1" parent="1">
          <mxGeometry x="667" y="103.69" width="76.54" height="59.44" as="geometry" />
        </mxCell>
        <mxCell id="yRE97sjeFo4-obtxFWHD-37" value="" style="shape=image;verticalLabelPosition=bottom;labelBackgroundColor=default;verticalAlign=top;aspect=fixed;imageAspect=0;image=data:image/png,iVBORw0KGgoAAAANSUhEUgAAAMgAAADICAMAAACahl6sAAAAe1BMVEX///8AAAAvLy9nZ2czMzPPz8+bm5tjY2PLy8sICAjm5uaXl5f7+/sMDAxvb28EBAT19fVCQkIqKirs7OwcHBxWVlawsLDX19eGhobg4OC+vr4YGBi0tLRZWVkSEhJMTEwiIiJ2dnanp6dFRUV+fn46OjqPj497e3vDw8Oh9h7FAAANEUlEQVR4nO1dZ5eiMBQVRZr0DtIR9P//wqUkCKEEWBj1HO6HmR2GkVyS11+yp9OBAwcOHDhw4MCBAwcOHDjwcfBXzzNf2qeH8Z+4xqpEVAh8j//0aFbDJYk27tRvUnHChkKgB9X3s/XpQa0AcwfzELty8aPm0SxBCO6nh7UYHlvRYG25ucRdCELyPjimNbCEikd0LX9gbD8NxUQ+eQIROJ8e2iLIasVDL0edqEBShFi7BgT56bEtwrMaucQUspG29Jb+ciXC/PTgFkCrF1ZcyEXU0cCsFxPZp0e3APWECNqJ71qS4hoTEMynhzcf9TTQp9ODQEEahP3p4c2GU4/ZPGlsj0iB8NPjm41bPWDulA/xIIKf8VQutc46ncJBIkTw6QHOhV/L9emkDxMp5uo3UJsOyU2kESK/ordQndtD8ukRzoMjTNMQ1J+YEYse1LkFWDUUc/P6I1Gv2ycgRQptJwwgwDvy9Cd8CZIWAz3zn5TrALPBvRKbViKJeH12hDNxLQjcMz++eRZ48xqT2Jc0ei+4H4kSHQvMgHY1czFU+5L/I0Rq+Odx1fUbSwsgHaVBED+VShl2F2v8htYCcMZ5RJ8e2zKMuyn0p4e2DONr66eUVqF8xzzf8w4Pu+iZIebJy9kjZKP/cELez7qT4cVOXGtDhWINT4m43RPeGHhpgZrSD8rbwkWNh3hku8TrBRE1zPRBt5tVFfp5M6/ro1J+IGIn9/HhCyKX8rt29ShbNLJoaDVIUWbEecJwi98l35txZadYBBJ5o6J0Ccn70CTppCEWgrQgnki6n/PcKw8EifDezUWewXOMeXvSqRoMMArOhWqY9XLlXG3+Kr1uzwAAELEigRQiEEdTHtPVxrLzSvLYVyJElOYOy7rRCkmGjz1dxZoIf860k3wR6idVg7xnVDGCQh1rbU6y5SaVKLFLiHSgOQ63g89YE3nVfnVmVNfA+77AxGdQXtYQE6OZi4lY1EXRa2UikKK3LZuaCEVUrz0XqmsokarCxFTPVxU/zs1XKezMMiLuBdUeAr1lSgjOSOU1PHBEGpDLiPC3brGnEf7tpAYIexY5pxN3H15aFREtj+mQhJZzGRFvmEYBabNCCSDCqazhB3dnnAiE7DAmZecLiPDiGI0S4UaGBdoROVcyEfgig0SslLYLB+xt3GcT8ad4bMakb9kLmX9cDEW9i8MyEkRkajzmE7GneWzlDDdEOGbATmtukj8vIX1aL+zcWBr4jU06IQARuXTuwnZHAo+qeVlzrm4hHjGdkno2m8ikgNTQt7AogIgfJLIV6tBhd+LCPxKUvPUEGY0h5xGZMSHEJjXemohV9SLwZ5DdyNnULFyWlyi8yzHFuO/n1BftW+Je5xvEGRNSiN0Grn3Hstt1iTIWYIuFQ8YtIi3MlZFZE0IQ+VZEvNrXstnya8K+M7MyCafd8RVSb5K5c4nMmpBNEnY1Ebmy6byqlF/19pLl2M5oec1h3OQ21yDOnJAtFBcQdpfN8pyUyqlIgo4SsdP6e+H9Mk57Lc8hMnNCCMLYisjJMgQpq5YU7Xdu0AgHjrtEYQ4V4/JMZhGZPSGE9N/i3rfsGSJ5JNUmAjBPRjATEtpUg/9uqusTAQNv4NeKS7vZ8cUPM/XOziUyPSHstvlGSMQkpehRCYeCmCe654sVEu/MITI9IfH0Hy8FIHIjaOoRkCUTEQiebNWhtTHi1GGJYCSknBAvG6vOCcZCqamJaOyz+LcTlGN2BRkOtJj/IGKzS/y0cyoxXebqcDL0VLBEMBLidOvYPaRriCRExV+sLLsK1pbMWdeXdwlu9lOkjTQjVT1gK3J6pOKJ4FSWjGtYWRanQCLVX90qy+61baCsPjr38xpnMa45Q/1iJqR8Z2P1kxrL1lZNhKu7o32luhbfmxHyhjrmY2OI4CbkXNwyeQO7iAcUdlu/lq4jcLJEFjjwVpmUSKjEc5lC+DW5PdsYIjijnqKmCYW6isjpFqh3tdHsZhT49s1OiUsxv+fqc8FjqZNBKqGPXVpYo15EDObkDQv7NxuDyFud+NC8KJmRV5cQItWPFxwRrJf1aDICI+iZLyyRrNCsxdq5Wg6nDWmKSripk0bldiy+Tr4aBRKOCN7LomCP8xgWho29QkylXMlMCQ3/IsYPO7+VFuRV8lwgI3i31xuvldZY2Cs4/WE9SELNMw2NcILIDLf3Ot2ssrh7cyGR3mCGMSMOKbSIirvh40RmTEhpJYYqYQ2EZTx2ICJbntG7s/fyo+LGyc9eaEbKRJymcY5jWVfm5bqemSQJdctz237EsXihad8wwlTJMvKsRpEeBELrbXfDecelnn42WEMVHPRyNtk9RPzNNgBelmvutfnnXsmDhqWoYdxO6CQZZVFmCgvNyH8yMsUULZAOIet3CokYJ36DVFdtbyWJZVkhCO53XY+iSC1wPp+7eYlkrIEfAWv1X7893WG3Rcv5lOPQ2a6GrRe0Bt2T7ASno/+/vjiXiDeXB1n5A0j1rfBP+7qtjf9PB88lMm3O3pBq3YYMu1ht2dRfLTUj9TPObUwtfPZ921wexLN+CCIRcm+OulhsRkqc545pDVTgaHalvQx0J9XdKjOyKxEotF1pV8tc7BRWFRb3JPIeUGclpfVWgHGsMiM7EoneqYuOtNM4rbfKjOxHhG1Zg84O0WeZ6pjCKjOyGxG9vSmh45Hchra+trHKjNiX/0TlIpc+MkmeFT9UyOgeBKpBdVJiVnucJtxyOYJVZuSP0FFbzOiW0RqLzUhy3gWD3UttS8thEr+Lzch0amk1BkPHlksiFT8ORmAQi83IXxJpdQnpRSwz+QGLzchfEmnl40hcoLv4UIi/JNJ6loHLYC82I39JpGXKRVwGe7EZ+UMir5bhwAW6y82ISWIAipUB7r4uUPWrJX4nG5eM7MiAWBWNTAM4FsJ/FPQtW0FTRS6m03GPpBZ4oLLur3lPHAoEixlTpojssedHAwZ5RYDAUeFIGV3GhPwb9G/1AZQNu7BpmnmM+yClLE8eQbDP2UJA2yw470c26UkHRMVlsPfZZiKDVT6zFmblCi6LqiBOfQ87bV8CCZBZi8ucE6X5g8cpvLFbNBLXn09imypkTPs4QIzJYO+xc7QCD1TMA3ffpE59I8ckjverjVxriyb9V4PWGybm1l22jtYAmQJ1cnFNO7QtMJgM9i5mpAY8tmyy7W06vd4Ch8lg73lEnVWrVGkiUOBn95S644c8Vdhvt+KpcbtHu54WrCyCuIuTrVr7nsgDNNK4IM6u/OCw8yFi8ICm0S7XzYis9LRnAyRro7HFNZ1eXwCcufpvgNzgWAV8uuCxALuf/sKBcHVscc3WWtNY2Ce7BsBB0ke0ymRRcDZw7sMmACZv5HyWmZ4WBjua9Tc0EC8Nm955ri8Gf3Q4KFCx98HFFaODykJ/MlLs4/5nB+iCuHdwB04v5ybj6lIIovzvTnmCce9QsbKXBeXeSZhJSEF0TunbX0j5GyDuDQYOS+k5W+XIrJ4uK4ethAYdP3LKdBlrj4MT5gCERANRXK/XvaqFynla9m6LT5tKvO6wec3Z8oSfhQCHdhNU/1eoS9uTXF6zGC9par1nYmeXfRoMOH+inw5G5QFw1fKnWO7OgscTNO1rHyYCNVHflUDDPmDb0CXXrMpPE4Fx7w39BRrrAjeWR5Zck7P8NBEY9/YWF5oagUEYsuSa6sfHiUDTh0ZAqEWEwoCks+/w/s8Tgf4h4uCh6UMoDMiSazYdfQEREPci6WC0JxYKA7rkYHbsC4jAuLebDkZr51AY0PwodDm/gQiMezteN6qeoDCgrVlwHr+CCIh7u/v2EfUEhQGtIcAs31cQgZJ9bi8utNoGHCm0qgPPE/gOIlAXPfuXGgAXGc2vwBjgS4iAuLedDkbVExQGJL8CXYIvIQLj3pZZRNUT9HORmARqiG8hAvY1tRrmUYsIhQHxJqHr8jVEZJQIahGhMCCyA9NJX0PkhBJBLSJ0YRDZga7L9xJB+/tgOhrxJqHr8r1E0I5LKAyI7EDX5YuJIBYRCgMiO9B1+WIiSFcyFAZEdiRw+YuJIH3i0MSgsgPc3y8mgljEphcDkR0QI38xEUSqdXgdkR3g1XwxEcRhb9p8EIsILP4XE0Eddujjx93LwOJ/MRG0MQ4GtUh/MbD4X0wE3WwP/XhkyYGWlq8lInto9Q348VfE2QKGck8iBn6XSwttIm6c9RtMzMIY5mHvTISq4CW7ZYi/1/8XsWLjWEWEG26OpYZb5VLNbGjr/m2PDoG1REYquslwN2mKPCYw8uvGB8qvJTJyosZreDuEMfAYIbSZDcmsJDKy0UiQh3dX2OVjJFJM3EenSZjdri1zWyKP4W0iAqeEtguSXjzT0gbbdTitXVpDVWgpHj5qI+gf+Gnd/OoTnr3frMWKXaJVcoejekgqs271ro+dfO8kF/XX/lvqAwcOHDhw4MCBAwcOHDhw4ADEPxbxxjmsWAbcAAAAAElFTkSuQmCC;shadow=1;" vertex="1" parent="1">
          <mxGeometry x="371.5" y="378" width="75" height="75" as="geometry" />
        </mxCell>
        <mxCell id="yRE97sjeFo4-obtxFWHD-42" value="&lt;b&gt;Keep Capturing or change the Instrument Setup Parameters&lt;/b&gt;" style="text;html=1;align=center;verticalAlign=middle;whiteSpace=wrap;rounded=0;" vertex="1" parent="1">
          <mxGeometry x="91" y="459" width="194" height="37" as="geometry" />
        </mxCell>
        <mxCell id="yRE97sjeFo4-obtxFWHD-43" value="&lt;b&gt;Gives whether the Image captuired is of Good Quality or not&lt;/b&gt;" style="text;html=1;align=center;verticalAlign=middle;whiteSpace=wrap;rounded=0;" vertex="1" parent="1">
          <mxGeometry x="505" y="445" width="348" height="30" as="geometry" />
        </mxCell>
        <mxCell id="yRE97sjeFo4-obtxFWHD-46" value="&lt;b&gt;Algorithm for Image Quality Check&lt;/b&gt;" style="text;strokeColor=none;fillColor=none;align=left;verticalAlign=middle;spacingLeft=4;spacingRight=4;overflow=hidden;points=[[0,0.5],[1,0.5]];portConstraint=eastwest;rotatable=0;whiteSpace=wrap;html=1;" vertex="1" parent="1">
          <mxGeometry x="596.5" y="42" width="214.5" height="30" as="geometry" />
        </mxCell>
      </root>
    </mxGraphModel>
  </diagram>
</mxfile>
